<?xml version="1.0" encoding="UTF-8"?>
<svg width="196px" height="157px" viewBox="0 0 196 157" version="1.1" xmlns="http://www.w3.org/2000/svg" xmlns:xlink="http://www.w3.org/1999/xlink">
    <!-- Generator: Sketch 51 (57462) - http://www.bohemiancoding.com/sketch -->
    <title>case01_gy</title>
    <desc>Created with Sketch.</desc>
    <defs></defs>
    <g id="case01_gy" stroke="none" stroke-width="1" fill="none" fill-rule="evenodd">
        <g id="Group-3" transform="translate(10.000000, 16.000000)" fill="#D8D8D8">
            <text id="政府部門" font-family="PingFangTC-Medium, PingFang TC" font-size="28" font-weight="400" letter-spacing="2.183999">
                <tspan x="28.132002" y="106">政府部門</tspan>
            </text>
            <g id="725973" transform="translate(54.000000, 0.000000)" fill-rule="nonzero">
                <path d="M66.9785156,56.7363281 L64.9570312,56.7363281 L64.9570312,48.3026953 C67.3099043,47.4682266 69,45.2212793 69,42.5859375 C69,39.241998 66.2794863,36.5214844 62.9355469,36.5214844 L56.7363281,36.5214844 L56.7363281,30.4570312 C56.7363281,29.3406328 55.8312422,28.4355469 54.7148438,28.4355469 L48.5064609,28.4355469 C47.6174121,22.2475137 42.7095176,17.3401582 36.5214844,16.4511094 L36.5214844,12.1289062 L46.6289062,12.1289062 C47.7453047,12.1289062 48.6503906,11.2238203 48.6503906,10.1074219 L48.6503906,2.02148438 C48.6503906,0.905085937 47.7453047,0 46.6289062,0 L34.5,0 C33.3836016,0 32.4785156,0.905085937 32.4785156,2.02148438 C32.4785156,4.05819727 32.4785156,14.4172266 32.4785156,16.4511094 C26.2904824,17.3401582 21.3825879,22.2475137 20.4935391,28.4355469 L14.2851562,28.4355469 C13.1687578,28.4355469 12.2636719,29.3406328 12.2636719,30.4570312 L12.2636719,36.5214844 L6.06445312,36.5214844 C2.72051367,36.5214844 0,39.241998 0,42.5859375 C0,45.2212793 1.6900957,47.4682266 4.04296875,48.3026953 L4.04296875,56.7363281 L2.02148438,56.7363281 C0.905085937,56.7363281 0,57.6414141 0,58.7578125 L0,66.9785156 C0,68.0949141 0.905085937,69 2.02148438,69 C4.52974219,69 64.6904648,69 66.9785156,69 C68.0949141,69 69,68.0949141 69,66.9785156 L69,58.7578125 C69,57.6414141 68.0949141,56.7363281 66.9785156,56.7363281 Z M36.6230769,4.24615385 L44.5846154,4.24615385 L44.5846154,8.49230769 L36.6230769,8.49230769 L36.6230769,4.24615385 Z M63.2448824,40.3384615 C64.3695912,40.3384615 65.2846154,41.2908738 65.2846154,42.4615385 C65.2846154,43.6322031 64.3695912,44.5846154 63.2448824,44.5846154 L48.8307692,44.5846154 L48.8307692,40.3384615 L63.2448824,40.3384615 Z M61.0384615,48.8307692 L61.0384615,56.7923077 C59.8594131,56.7923077 50.7315472,56.7923077 48.8307692,56.7923077 L48.8307692,48.8307692 L61.0384615,48.8307692 Z M16.4538462,32.1115385 L22.5576923,32.1115385 C23.6813426,32.1115385 24.5923077,31.2203769 24.5923077,30.1211538 C24.5923077,24.6336635 29.15595,20.1692308 34.7653846,20.1692308 C40.3748192,20.1692308 44.9384615,24.6336635 44.9384615,30.1211538 C44.9384615,31.2203769 45.8494267,32.1115385 46.9730769,32.1115385 L53.0769231,32.1115385 L53.0769231,36.0923077 L47.5890228,36.0923077 L35.8939179,28.4650212 C35.2105585,28.0193077 34.3200751,28.0193077 33.6367156,28.4650212 L21.9417464,36.0923077 L16.4538462,36.0923077 L16.4538462,32.1115385 Z M38.5338462,40.5967861 C37.4199668,40.5967861 36.5169231,41.5031955 36.5169231,42.6212263 L36.5169231,56.7923077 L32.4830769,56.7923077 L32.4830769,42.6212263 C32.4830769,41.5031955 31.5800332,40.5967861 30.4661538,40.5967861 C29.3522745,40.5967861 28.4492308,41.5031955 28.4492308,42.6212263 L28.4492308,56.7923077 L24.4153846,56.7923077 C24.4153846,53.6272979 24.4153846,43.2026455 24.4153846,39.6558263 L34.5,32.9076923 L44.5846154,39.6558263 C44.5846154,43.3331544 44.5846154,52.7563837 44.5846154,56.7923077 L40.5507692,56.7923077 L40.5507692,42.6212263 C40.5507692,41.5031955 39.6477255,40.5967861 38.5338462,40.5967861 Z M6.28588684,40.3384615 L20.7,40.3384615 L20.7,44.5846154 L6.28588684,44.5846154 C5.16117807,44.5846154 4.24615385,43.6322031 4.24615385,42.4615385 C4.24615385,41.2908738 5.16117807,40.3384615 6.28588684,40.3384615 Z M20.1692308,48.8307692 L20.1692308,56.7923077 C18.2692577,56.7923077 9.1405869,56.7923077 7.96153846,56.7923077 L7.96153846,48.8307692 L20.1692308,48.8307692 Z M13.2326478,65.2846154 C11.3986613,65.2846154 6.07868444,65.2846154 4.24615385,65.2846154 L4.24615385,61.0384615 L15.9230769,61.0384615 L13.2326478,65.2846154 Z M18.0461538,65.2846154 L20.7826618,61.0384615 L48.2173382,61.0384615 L50.9538462,65.2846154 L18.0461538,65.2846154 Z M64.7538462,65.2846154 C62.9212948,65.2846154 57.60139,65.2846154 55.7673827,65.2846154 L53.0769231,61.0384615 L64.7538462,61.0384615 L64.7538462,65.2846154 Z" id="Shape"></path>
            </g>
        </g>
    </g>
</svg>