<?xml version="1.0" encoding="UTF-8"?>
<svg width="196px" height="157px" viewBox="0 0 196 157" version="1.1" xmlns="http://www.w3.org/2000/svg" xmlns:xlink="http://www.w3.org/1999/xlink">
    <!-- Generator: Sketch 51 (57462) - http://www.bohemiancoding.com/sketch -->
    <title>case03_bk</title>
    <desc>Created with Sketch.</desc>
    <defs></defs>
    <g id="case03_bk" stroke="none" stroke-width="1" fill="none" fill-rule="evenodd">
        <g id="Group-5" transform="translate(10.000000, 12.000000)" fill="#4A4A4A">
            <text id="電信業" font-family="PingFangTC-Medium, PingFang TC" font-size="28" font-weight="400" letter-spacing="2.183999">
                <tspan x="43.2240015" y="113">電信業</tspan>
            </text>
            <g id="648235" transform="translate(67.000000, 0.000000)" fill-rule="nonzero">
                <path d="M16.9992374,32 C14.2426942,32 12,34.2433043 12,37.0007626 C12,39.7573058 14.2426942,42 16.9992374,42 C19.7566957,42 22,39.7573058 22,37.0007626 C22,34.2431517 19.7566957,32 16.9992374,32 Z M16.9992374,38.9300226 C15.9353914,38.9300226 15.0698249,38.0644561 15.0698249,37.0006101 C15.0698249,35.9358489 15.9353914,35.0696724 16.9992374,35.0696724 C18.0639985,35.0696724 18.9301751,35.9360015 18.9301751,37.0006101 C18.9301751,38.0644561 18.063846,38.9300226 16.9992374,38.9300226 Z" id="Shape"></path>
                <path d="M41.8048914,18.3398819 C41.034486,17.5661072 40.0085162,17.1398993 38.9157224,17.1398993 C36.6628656,17.1398993 34.8299599,18.9748083 34.8299599,21.2301276 L34.8299599,23.5235037 L32.3282211,23.5235037 L32.3282211,14.7991006 L32.3282211,5.4959645 C32.3282211,4.66971282 31.659091,4 30.8338899,4 C30.0086888,4 29.3395587,4.66971282 29.3395587,5.4959645 L29.3395587,13.3031361 L16.1644075,13.3031361 C16.1474788,13.3031361 16.1312926,13.3050687 16.1145124,13.3056633 C16.0858523,13.3065553 16.0571923,13.3074472 16.0283838,13.3099745 C16.0053666,13.3120557 15.9829435,13.3154749 15.9602234,13.3185967 C15.9346818,13.3220159 15.9091402,13.3254351 15.8838956,13.3301922 C15.8599875,13.334652 15.8366734,13.3404497 15.8133593,13.3462475 C15.7894511,13.3518965 15.7656915,13.3575456 15.7419319,13.3646813 C15.7187663,13.3715197 15.6960462,13.3795473 15.673326,13.3874263 C15.6500119,13.3954539 15.6266978,13.4036302 15.6036807,13.4129958 C15.5818515,13.4217667 15.5607649,13.4317269 15.5393812,13.4415385 C15.5163641,13.4520933 15.493347,13.4627968 15.4706268,13.474541 C15.4501342,13.4852445 15.4302355,13.4971373 15.4101883,13.5088814 C15.3882107,13.5218148 15.366233,13.5345996 15.3447009,13.5487222 C15.3243567,13.5622503 15.3049035,13.5766703 15.2851533,13.5910903 C15.2655517,13.6055103 15.2458015,13.6193357 15.2267938,13.6347963 C15.2055586,13.6518922 15.1855115,13.670326 15.1653158,13.6884625 C15.151951,13.700504 15.1379922,13.7112075 15.1249245,13.7238436 C15.121806,13.7268168 15.11943,13.7300873 15.1163116,13.7330605 C15.0962644,13.7526836 15.0778507,13.7737933 15.0589915,13.7946057 C15.0442903,13.8108096 15.028995,13.8262703 15.0151847,13.8429202 C14.999741,13.8615027 14.9860792,13.8812744 14.9715265,13.9003029 C14.9563797,13.920372 14.9404905,13.9401437 14.9263832,13.9608075 C14.9161369,13.9761194 14.9070785,13.992472 14.8974262,14.00823 C14.8815369,14.0336508 14.8650537,14.058923 14.8507979,14.0850871 C14.8423336,14.1009938 14.8352057,14.117495 14.8271868,14.1336989 C14.8136735,14.160755 14.7997147,14.1875138 14.7879834,14.2150159 C14.7766976,14.241626 14.7676393,14.2694254 14.7578384,14.2969275 C14.751453,14.3149153 14.7438797,14.3324572 14.7382367,14.3504451 C14.7297724,14.3777985 14.723387,14.4060439 14.7164076,14.4339919 C14.7116557,14.453169 14.7055673,14.4721975 14.7015578,14.4915233 C14.6966574,14.5148629 14.6939845,14.5387971 14.6901235,14.5624341 C14.6861141,14.5874089 14.6815107,14.6123838 14.6785407,14.6375073 C14.6763133,14.6578737 14.6758678,14.6788348 14.6745313,14.6994985 C14.6726008,14.7284872 14.6703734,14.7574758 14.6702249,14.7867618 C14.6702249,14.7907757 14.6696309,14.7947895 14.6696309,14.7989519 L14.6696309,20.8593698 L14.6697794,20.8593698 C6.454893,21.6166433 0,28.5532626 0,36.9723183 C0,41.851782 2.16865872,46.2338296 5.59182504,49.2031623 C8.07411065,51.3565009 11.2166165,52.765648 14.6699279,53.0842262 L14.6699279,63.841256 L12.1946216,63.841256 L12.1946216,61.5478798 C12.1946216,59.2925606 10.3624584,57.4576515 8.11049256,57.4576515 C5.8585267,57.4576515 4.0263635,59.2925606 4.0263635,61.5478798 L4.0263635,69.1268585 C4.0263635,70.2217386 4.45210608,71.2494245 5.22147206,72.0171041 C5.99187753,72.7908789 7.01784734,73.2170868 8.11064106,73.2170868 C10.3627554,73.2170868 12.1947701,71.3821777 12.1947701,69.1270072 L12.1947701,66.833631 L14.6700764,66.833631 L14.6700764,74.5043328 C14.6700764,74.5083466 14.6706703,74.5123605 14.6706703,74.5163743 C14.6708188,74.5455116 14.6730463,74.5745003 14.6749768,74.6036376 C14.6763133,74.6243014 14.6767587,74.6452624 14.6789862,74.6656288 C14.6816592,74.6907523 14.6864111,74.7157272 14.690569,74.740702 C14.6942815,74.764339 14.6971029,74.7882732 14.7020033,74.8116128 C14.7060128,74.8309386 14.7119527,74.8499671 14.7168531,74.8691442 C14.7238325,74.8970923 14.7302179,74.9253376 14.7386822,74.9526911 C14.7443251,74.9708276 14.752047,74.9885181 14.7582839,75.0062086 C14.7679363,75.0337107 14.7771431,75.0615101 14.7884289,75.0881202 C14.8000117,75.115771 14.814119,75.1425297 14.8276323,75.1694372 C14.8356512,75.1856411 14.8426305,75.202291 14.8512434,75.218049 C14.8654992,75.2442131 14.8819824,75.2694853 14.8978716,75.2949061 C14.9076725,75.3106641 14.9165823,75.3270167 14.9268287,75.3423286 C14.9409359,75.3629924 14.9568252,75.3826155 14.9719719,75.4028332 C14.9865247,75.4220103 15.0001865,75.4417821 15.0156302,75.4602159 C15.0294405,75.4768658 15.0448843,75.4923265 15.059437,75.5085304 C15.0782962,75.5293428 15.0968584,75.5503038 15.1167571,75.5700756 C15.119727,75.5730488 15.1222515,75.5763193 15.1253699,75.5792925 C15.1390317,75.5925232 15.1535845,75.6036727 15.1675433,75.6163088 C15.1868479,75.633702 15.2058556,75.6510952 15.2259028,75.6674478 C15.2452075,75.6830571 15.2651062,75.6970311 15.2847079,75.7115998 C15.303864,75.7257225 15.3227232,75.7398452 15.3424734,75.7529273 C15.3640056,75.7671986 15.3861317,75.7798347 15.4082578,75.7929168 C15.427711,75.8045122 15.4468672,75.8161077 15.4667659,75.8266626 C15.489486,75.838704 15.5128001,75.8492589 15.5359658,75.8599624 C15.5566069,75.8694766 15.5769511,75.8794368 15.5980378,75.8880591 C15.6213519,75.8975733 15.644963,75.905601 15.6685741,75.9139259 C15.6905518,75.9216562 15.7122324,75.9298325 15.7346555,75.9365222 C15.7588606,75.9438066 15.7835112,75.9494556 15.8080133,75.955402 C15.830288,75.9609024 15.8522656,75.9668488 15.8749858,75.9714573 C15.9030518,75.9769577 15.9312663,75.9803769 15.9597779,75.9845394 C15.9793796,75.9872152 15.9985357,75.9907831 16.0184344,75.9927157 C16.0669931,75.9974728 16.1157003,76 16.164556,76 L30.8341869,76 C30.8828941,76 30.9316013,75.9973241 30.98016,75.9927157 C31.0002072,75.9907831 31.0195119,75.9870666 31.0392621,75.9843907 C31.0673281,75.9805256 31.0953942,75.9771064 31.1234602,75.9714573 C31.1463288,75.9669975 31.168455,75.9609024 31.1910266,75.9552534 C31.2153802,75.949307 31.2397338,75.9438066 31.2639389,75.9365222 C31.2863621,75.9298325 31.3081912,75.9215076 31.3303173,75.9137773 C31.3539285,75.905601 31.3775396,75.8974247 31.4007052,75.8880591 C31.4216434,75.8794368 31.4419875,75.8696253 31.4624802,75.860111 C31.4857943,75.8494075 31.5092569,75.838704 31.5321256,75.8266626 C31.5518757,75.8162564 31.5708834,75.8046609 31.5898911,75.7933627 C31.6121658,75.780132 31.6345889,75.7673473 31.656418,75.7529273 C31.6758712,75.7399938 31.6944334,75.7260198 31.7131441,75.7123431 C31.7333398,75.6976258 31.7535355,75.6833544 31.7731371,75.6674478 C31.7930358,75.6512439 31.811895,75.6339993 31.8309027,75.6167548 C31.84501,75.6041187 31.8597112,75.5926719 31.873373,75.5794412 C31.8764915,75.576468 31.8790159,75.5731974 31.8819859,75.5702242 C31.902033,75.5506011 31.9205952,75.5294914 31.9393059,75.5086791 C31.9540072,75.4924751 31.9693024,75.4770145 31.9831127,75.4603646 C31.9985565,75.4417821 32.0122182,75.4220103 32.026771,75.4029819 C32.0419178,75.3829128 32.057807,75.363141 32.0719143,75.3424773 C32.0821606,75.3271653 32.091219,75.3108127 32.1008713,75.2950548 C32.1167605,75.2696339 32.1332438,75.2443618 32.1474995,75.2181976 C32.1559639,75.202291 32.1630918,75.1857898 32.1709622,75.1695858 C32.1844754,75.1425297 32.1984342,75.115771 32.2101655,75.0882689 C32.2214513,75.0616588 32.2305097,75.0338594 32.2403105,75.0062086 C32.2466959,74.9882208 32.2542693,74.9708276 32.2599122,74.9526911 C32.2683766,74.9253376 32.274762,74.8970923 32.2817414,74.8691442 C32.2864933,74.8499671 32.2924332,74.8309386 32.2965911,74.8116128 C32.3014915,74.7882732 32.3041645,74.764339 32.3081739,74.740702 C32.3121834,74.7157272 32.3167868,74.6907523 32.3194597,74.6656288 C32.3216872,74.6452624 32.3221327,74.6243014 32.3234692,74.6036376 C32.3253996,74.5746489 32.3276271,74.5455116 32.3279241,74.5163743 C32.3279241,74.5123605 32.3285181,74.5083466 32.3285181,74.5043328 L32.3285181,68.7737913 C36.5053097,68.0673594 39.6977107,64.4223675 39.6977107,60.0432931 C39.6977107,55.6646646 36.5054581,52.0205646 32.3285181,51.3142815 L32.3285181,36.9843597 C32.3285181,36.9804946 32.3286666,36.9767781 32.3286666,36.9727643 C32.3286666,36.9687505 32.3285181,36.9651826 32.3285181,36.9613175 L32.3285181,26.5155814 L34.8302569,26.5155814 L34.8302569,28.8089576 C34.8302569,31.0642768 36.6631626,32.8990372 38.9158709,32.8990372 C41.1679853,32.8990372 43,31.0641282 43,28.8089576 L43,21.2299789 C43,20.1353961 42.5742574,19.1078589 41.8048914,18.3398819 Z M9.20581075,69.1267098 C9.20581075,69.7322016 8.71443224,70.2248605 8.11034407,70.2248605 C7.81795232,70.2248605 7.54367728,70.1111357 7.33459268,69.9012279 C7.12847804,69.6954826 7.01487739,69.4206105 7.01487739,69.1267098 L7.01487739,61.5477312 C7.01487739,60.9422394 7.50625589,60.4495806 8.11034407,60.4495806 C8.71443224,60.4495806 9.20581075,60.9420908 9.20581075,61.5477312 L9.20581075,69.1267098 Z M29.3395587,18.4974614 L29.3395587,26.282334 L25.5782634,22.3898234 L29.3395587,18.4974614 Z M29.3397072,48.4014395 L29.3397072,51.3197819 C28.1564785,51.5246352 27.0537354,51.9649658 26.0804822,52.5917159 L25.6018745,52.0963812 L29.3397072,48.4014395 Z M27.3092997,16.2950651 L23.4991487,20.2379715 L19.6891462,16.2950651 L27.3092997,16.2950651 Z M17.6587387,18.4974614 L20.4271792,21.3624349 C19.5326298,21.1174434 18.6076383,20.9473765 17.6587387,20.8599644 L17.6587387,18.4974614 Z M16.1635166,50.1615727 C12.6448663,50.1615727 9.44385237,48.7733866 7.07828585,46.5153915 C4.56036081,44.1117097 2.98895938,40.7221154 2.98895938,36.9723183 C2.98895938,29.6994303 8.89931173,23.7824693 16.164259,23.7824693 C23.4290579,23.7824693 29.3395587,29.6992817 29.3395587,36.9723183 C29.3395587,39.041664 28.8605055,41.0010014 28.0084264,42.7456739 C25.8657547,47.1326273 21.3616745,50.1615727 16.1635166,50.1615727 Z M23.1614652,64.4119613 L18.2671333,59.3468215 L23.4750921,54.1987294 L23.8729171,54.6106659 C22.7040927,56.1118335 22.0054115,57.9966923 22.0054115,60.0428471 C22.0054115,61.6309807 22.4271447,63.1217421 23.1614652,64.4119613 Z M17.6587387,55.7430083 L17.6587387,53.0842262 C18.8256328,52.9765964 19.9570359,52.7449843 21.0392862,52.4014313 L17.6587387,55.7430083 Z M17.6587387,63.0208021 L21.4200341,66.9133127 L17.6587387,70.8056747 L17.6587387,63.0208021 Z M19.6889977,73.008071 L23.4991487,69.0651647 L27.3091512,73.008071 L19.6889977,73.008071 Z M29.3395587,70.805972 L26.2389292,67.5971482 C27.172682,68.1706781 28.2206294,68.573695 29.3395587,68.7675475 L29.3395587,70.805972 Z M36.7087513,60.0428471 C36.7087513,63.2764971 34.0807896,65.9073312 30.8506701,65.9073312 C27.6214417,65.9073312 24.9940739,63.2764971 24.9940739,60.0428471 C24.9940739,56.8100891 27.6214417,54.1798496 30.8506701,54.1798496 C34.0807896,54.1798496 36.7087513,56.8099404 36.7087513,60.0428471 Z M40.0111891,28.8086603 C40.0111891,29.414152 39.5198106,29.9068109 38.9157224,29.9068109 C38.3108918,29.9068109 37.8187708,29.4143007 37.8187708,28.8086603 L37.8187708,25.0279419 C37.8187708,25.0249687 37.8192163,25.0222928 37.8192163,25.0193196 C37.8192163,25.0163464 37.8187708,25.0136705 37.8187708,25.0106973 L37.8187708,21.2299789 C37.8189193,20.6243385 38.3110403,20.1318283 38.9157224,20.1318283 C39.2081142,20.1318283 39.4823892,20.2455531 39.6911768,20.4553122 C39.8975885,20.6612062 40.0111891,20.936227 40.0111891,21.2299789 L40.0111891,28.8086603 Z" id="Shape"></path>
                <path d="M30.5,59 C28.5016978,59 28.498303,62 30.5,62 C32.4983022,62 32.501697,59 30.5,59 Z" id="Shape"></path>
                <path d="M30.5000289,0 C28.501688,0 28.4982934,3 30.5000289,3 C32.4983699,3 32.5016102,0 30.5000289,0 Z" id="Shape"></path>
            </g>
        </g>
    </g>
</svg>