<?xml version="1.0" encoding="UTF-8"?>
<svg width="1014px" height="456px" viewBox="0 0 1014 456" version="1.1" xmlns="http://www.w3.org/2000/svg" xmlns:xlink="http://www.w3.org/1999/xlink">
    <!-- Generator: Sketch 51 (57462) - http://www.bohemiancoding.com/sketch -->
    <title>gear</title>
    <desc>Created with Sketch.</desc>
    <defs>
        <path d="M90.4232189,97.4440934 C96.3688967,95.2059333 102.581431,93.5124855 109,92.4245723 L109,68 L142,68 L142,92.2602495 C148.785026,93.3401605 155.344834,95.0957765 161.608285,97.4559587 L171.521591,78 L200.924807,92.9816865 L190.201522,114.027317 C195.817772,118.656973 200.925229,123.881653 205.427417,129.604881 L230.018314,117.075193 L245,146.478409 L221.326018,158.540905 C223.294952,164.150706 224.782701,169.986909 225.739751,176 L255,176 L255,209 L225.575428,209 C224.617924,214.649168 223.191356,220.138737 221.337193,225.427239 L245.147484,237.559188 L230.165797,266.962403 L205.448498,254.368311 C200.941175,260.102032 195.82654,265.335799 190.201522,269.972683 L200.924807,291.018314 L171.521591,306 L161.608285,286.544041 C155.344834,288.904224 148.785026,290.659839 142,291.739751 L142,316 L109,316 L109,291.575428 C102.581431,290.487514 96.3688967,288.794067 90.4232189,286.555907 L80.4408119,306.147484 L51.0375966,291.165797 L61.8249236,269.994476 C56.5470479,265.646744 51.7181145,260.773692 47.4181228,255.455321 L24.834203,266.962403 L9.85251648,237.559188 L31.1259589,226.719828 C29.0449548,221.034963 27.4603302,215.110858 26.4245723,209 L0,209 L2.02066722e-15,176 L26.2602495,176 C27.2910235,169.523699 28.937411,163.252587 31.1375488,157.248528 L10,146.478409 L24.9816865,117.075193 L47.43963,128.518087 C51.7342143,123.210063 56.5558455,118.346009 61.8249236,114.005524 L51.0375966,92.834203 L80.4408119,77.8525165 L90.4232189,97.4440934 Z M127,257 C162.898509,257 192,227.898509 192,192 C192,156.101491 162.898509,127 127,127 C91.1014913,127 62,156.101491 62,192 C62,227.898509 91.1014913,257 127,257 Z" id="path-1"></path>
        <filter x="-2.0%" y="-2.0%" width="103.9%" height="104.0%" filterUnits="objectBoundingBox" id="filter-2">
            <feGaussianBlur stdDeviation="4.5" in="SourceAlpha" result="shadowBlurInner1"></feGaussianBlur>
            <feOffset dx="0" dy="1" in="shadowBlurInner1" result="shadowOffsetInner1"></feOffset>
            <feComposite in="shadowOffsetInner1" in2="SourceAlpha" operator="arithmetic" k2="-1" k3="1" result="shadowInnerInner1"></feComposite>
            <feColorMatrix values="0 0 0 0 0   0 0 0 0 0   0 0 0 0 0  0 0 0 0.5 0" type="matrix" in="shadowInnerInner1"></feColorMatrix>
        </filter>
        <path d="M105.795012,34.8277766 C112.91162,32.0965283 120.359584,30.0299097 128.062264,28.7042707 L128.062264,0 L166.424528,0 L166.424528,28.3382757 C174.587973,29.5816686 182.477187,31.6551247 190.002652,34.4694645 L201.434619,12.0329654 L235.615647,29.4490689 L223.316126,53.5882378 C230.068544,59.0889692 236.200259,65.3175346 241.590614,72.1537328 L270.514804,57.4161218 L287.930908,91.5971494 L260.137455,105.758621 C262.480565,112.381819 264.247256,119.275834 265.377517,126.380883 L298.903905,126.380883 L298.903905,164.743148 L265.193108,164.743148 C264.059024,171.451655 262.356809,177.968 260.137455,184.241379 L287.930908,198.402851 L270.514804,232.583878 L241.590614,217.846267 C236.200259,224.682465 230.068544,230.911031 223.316126,236.411762 L235.615647,260.550931 L201.434619,277.967035 L190.002652,255.530536 C182.477187,258.344875 174.587973,260.418331 166.424528,261.661724 L166.424528,290 L128.062264,290 L128.062264,261.295729 C120.359584,259.97009 112.91162,257.903472 105.795012,255.172223 L94.1804755,277.967035 L59.9994478,260.550931 L72.6319953,235.758161 C66.4611639,230.64176 60.8203691,224.912577 55.8037373,218.664386 L28.4851959,232.583878 L11.0690924,198.402851 L36.9546866,185.213482 C34.5643105,178.64201 32.7430679,171.798863 31.5502884,164.743148 L0.0960947784,164.743148 L0.0960947784,126.380883 L31.3658794,126.380883 C32.5515492,118.927525 34.4375767,111.706399 36.9546866,104.786518 L11.0690924,91.5971494 L28.4851959,57.4161218 L55.8037373,71.3356139 C60.8203691,65.0874227 66.4611639,59.3582404 72.6319943,54.2418384 L59.9994478,29.4490689 L94.1804755,12.0329654 L105.795012,34.8277766 Z M147.807547,221.434109 C189.869762,221.434109 223.967925,187.465015 223.967925,145.562016 C223.967925,103.659016 189.869762,69.6899225 147.807547,69.6899225 C105.745332,69.6899225 71.6471698,103.659016 71.6471698,145.562016 C71.6471698,187.465015 105.745332,221.434109 147.807547,221.434109 Z" id="path-3"></path>
        <filter x="-1.7%" y="-1.7%" width="103.3%" height="103.4%" filterUnits="objectBoundingBox" id="filter-4">
            <feGaussianBlur stdDeviation="4.5" in="SourceAlpha" result="shadowBlurInner1"></feGaussianBlur>
            <feOffset dx="0" dy="1" in="shadowBlurInner1" result="shadowOffsetInner1"></feOffset>
            <feComposite in="shadowOffsetInner1" in2="SourceAlpha" operator="arithmetic" k2="-1" k3="1" result="shadowInnerInner1"></feComposite>
            <feColorMatrix values="0 0 0 0 0   0 0 0 0 0   0 0 0 0 0  0 0 0 0.5 0" type="matrix" in="shadowInnerInner1"></feColorMatrix>
        </filter>
        <path d="M92.6034905,101.797896 C98.813484,99.5983297 105.301244,97.9860705 112,97.0278884 L112,73 L145,73 L145,97.681968 C151.795265,98.9333714 158.353514,100.861579 164.602254,103.394099 L174.559188,83.8525165 L203.962403,98.834203 L192.834681,120.673588 C197.861724,125.017976 202.457897,129.847451 206.550457,135.089264 L232.165797,122.037597 L247.147484,151.440812 L222.365337,164.067946 C224.264888,169.515371 225.713243,175.174312 226.66563,181 L259,181 L259,214 L226.66563,214 C225.713243,219.825688 224.264888,225.484629 222.365337,230.932054 L247.147484,243.559188 L232.165797,272.962403 L206.550457,259.910736 C202.266126,265.398172 197.429879,270.433722 192.125173,274.933925 L203.962403,298.165797 L174.559188,313.147484 L163.755744,291.94453 C157.762054,294.310802 151.489097,296.123012 145,297.318032 L145,323 L112,323 L112,297.972112 C105.301244,297.01393 98.813484,295.40167 92.6034905,293.202104 L82.4408119,313.147484 L53.0375966,298.165797 L63.6980508,277.243478 C58.0054978,272.754141 52.8052465,267.668314 48.1915767,262.080278 L26.834203,272.962403 L11.8525165,243.559188 L31.5734967,233.510847 C29.2075824,227.277579 27.4379859,220.750743 26.3343705,214 L0,214 L2.02066722e-15,181 L26.3343705,181 C27.4379859,174.249257 29.2075824,167.722421 31.5734967,161.489153 L11.8525165,151.440812 L26.834203,122.037597 L48.1915767,132.919722 C52.8052465,127.331686 58.0054978,122.245859 63.6980508,117.756522 L53.0375966,96.834203 L82.4408119,81.8525165 L92.6034905,101.797896 Z M128.5,264 C164.674651,264 194,234.674651 194,198.5 C194,162.325349 164.674651,133 128.5,133 C92.3253489,133 63,162.325349 63,198.5 C63,234.674651 92.3253489,264 128.5,264 Z" id="path-5"></path>
        <filter x="-1.9%" y="-2.0%" width="103.9%" height="104.0%" filterUnits="objectBoundingBox" id="filter-6">
            <feGaussianBlur stdDeviation="4.5" in="SourceAlpha" result="shadowBlurInner1"></feGaussianBlur>
            <feOffset dx="0" dy="1" in="shadowBlurInner1" result="shadowOffsetInner1"></feOffset>
            <feComposite in="shadowOffsetInner1" in2="SourceAlpha" operator="arithmetic" k2="-1" k3="1" result="shadowInnerInner1"></feComposite>
            <feColorMatrix values="0 0 0 0 0   0 0 0 0 0   0 0 0 0 0  0 0 0 0.5 0" type="matrix" in="shadowInnerInner1"></feColorMatrix>
        </filter>
    </defs>
    <g id="gear" stroke="none" stroke-width="1" fill="none" fill-rule="evenodd">
        <g id="Group-8" transform="translate(700.000000, 79.000000)">
            <g id="Combined-Shape" opacity="0.65390625">
                <use fill="#5F8197" fill-rule="evenodd" xlink:href="#path-1"></use>
                <use fill="black" fill-opacity="1" filter="url(#filter-2)" xlink:href="#path-1"></use>
            </g>
            <g id="Group-2" transform="translate(64.000000, 0.000000)" fill="#4A718B">
                <text id="正確知識" font-family="PingFangTC-Medium, PingFang TC" font-size="24" font-weight="400" letter-spacing="1.63">
                    <tspan x="25.24" y="25">正確知識</tspan>
                </text>
                <rect id="Rectangle-2" x="0" y="5" width="12" height="25"></rect>
            </g>
        </g>
        <g id="Group-5" transform="translate(359.000000, 37.000000)">
            <g id="Group-2" transform="translate(86.000000, 342.000000)" fill="#4A718B">
                <text id="精確工具" font-family="PingFangTC-Medium, PingFang TC" font-size="24" font-weight="400" letter-spacing="1.63">
                    <tspan x="25.24" y="25">精確工具</tspan>
                </text>
                <rect id="Rectangle-2" x="0" y="5" width="12" height="25"></rect>
            </g>
            <g id="Group-3">
                <g id="Combined-Shape">
                    <use fill="#90AFC4" fill-rule="evenodd" xlink:href="#path-3"></use>
                    <use fill="black" fill-opacity="1" filter="url(#filter-4)" xlink:href="#path-3"></use>
                </g>
            </g>
        </g>
        <g id="Group-6" transform="translate(59.000000, 96.000000)">
            <g id="Group-2" transform="translate(66.000000, 0.000000)" fill="#4A718B">
                <text id="完善制度" font-family="PingFangTC-Medium, PingFang TC" font-size="24" font-weight="400" letter-spacing="1.63">
                    <tspan x="25.24" y="25">完善制度</tspan>
                </text>
                <rect id="Rectangle-2" x="0" y="5" width="12" height="25"></rect>
            </g>
            <g id="Combined-Shape">
                <use fill="#5F8197" fill-rule="evenodd" xlink:href="#path-5"></use>
                <use fill="black" fill-opacity="1" filter="url(#filter-6)" xlink:href="#path-5"></use>
            </g>
        </g>
    </g>
</svg>