<?xml version="1.0" encoding="UTF-8"?>
<svg width="188px" height="157px" viewBox="0 0 188 157" version="1.1" xmlns="http://www.w3.org/2000/svg" xmlns:xlink="http://www.w3.org/1999/xlink">
    <!-- Generator: Sketch 52.5 (67469) - http://www.bohemiancoding.com/sketch -->
    <title>case02_gy</title>
    <desc>Created with Sketch.</desc>
    <g id="case02_gy" stroke="none" stroke-width="1" fill="none" fill-rule="evenodd">
        <g id="Group-2" transform="translate(55.000000, 28.000000)" fill="#D8D8D8" fill-rule="nonzero">
            <g id="83647">
                <path d="M76.875,51.5217229 L19.1672,51.5217229 L19.1672,3.12058595 C19.1672,1.39722364 17.7678,0 16.042,0 C14.3164,0 12.9172,1.39722364 12.9172,3.12058595 L12.9172,51.5219226 L3.125,51.5219226 C1.3994,51.5217229 0,52.9189465 0,54.6423089 C0,56.3654714 1.3994,57.7628948 3.125,57.7628948 L12.9172,57.7628948 L12.9172,65.879414 C12.9172,67.6031758 14.3164,69 16.042,69 C17.7678,69 19.1672,67.6031758 19.1672,65.879414 L19.1672,57.7628948 L76.875,57.7628948 C78.6004,57.7628948 80,56.3654714 80,54.6423089 C80,52.9189465 78.6004,51.5217229 76.875,51.5217229 Z" id="Shape"></path>
                <path d="M26.0377358,46 L34.9622642,46 C35.5355094,46 36,45.5505493 36,44.9963137 L36,25.0036863 C36,24.4494507 35.5355094,24 34.9622642,24 L26.0377358,24 C25.4644906,24 25,24.4494507 25,25.0036863 L25,44.9963137 C25,45.5505493 25.4644906,46 26.0377358,46 Z" id="Shape"></path>
                <path d="M40.0377358,45 L48.9622642,45 C49.5355094,45 50,44.5569115 50,44.0105215 L50,35.3314093 C49.122283,34.7735413 48.2962453,34.128995 47.5333019,33.4017283 C44.5060189,30.5152215 42.839,26.67743 42.839,22.5952373 C42.839,19.8862429 43.5772453,17.2870807 44.955566,15 L40.0377358,15 C39.4644906,15 39,15.4430885 39,15.9894785 L39,44.0107194 C39,44.5569115 39.4644906,45 40.0377358,45 Z" id="Shape"></path>
                <path d="M53,37.1123623 L53,44.0229366 C53,44.562471 53.4644906,45 54.0377358,45 L62.9622642,45 C63.5355094,45 64,44.562471 64,44.0229366 L64,37 C62.2078302,37.6376316 60.297566,37.9676836 58.3393585,37.9676836 C56.4917736,37.9674882 54.6925472,37.6737829 53,37.1123623 Z" id="Shape"></path>
                <path d="M58.5452553,36.0902 C61.1588669,36.0902 63.6486779,35.293 65.7426871,33.8194 L76.2863336,44.363 C76.7113355,44.7878 77.2681379,45 77.8245404,45 C78.3813429,45 78.9381453,44.7876 79.3629472,44.363 C80.2123509,43.5134 80.2123509,42.1358 79.3629472,41.2864 L68.8191007,30.7428 C70.2929072,28.6484 71.0897107,26.1588 71.0897107,23.545 C71.0897107,20.1942 69.7851049,17.0438 67.4154945,14.6744 C65.045884,12.3048 61.8956701,11 58.5448553,11 C55.1938406,11 52.0436267,12.305 49.6740162,14.6744 C47.3048058,17.044 46,20.1944 46,23.5452 C46,26.896 47.3048058,30.0464 49.6742162,32.4156 C52.0440267,34.7854 55.1942406,36.0902 58.5452553,36.0902 Z M52.2380275,17.2384 C53.923035,15.5538 56.1626448,14.626 58.5452553,14.626 C60.9274659,14.626 63.1674757,15.5538 64.8518832,17.2384 C66.5368906,18.9232 67.4642947,21.163 67.4642947,23.5454 C67.4642947,25.9278 66.5368906,28.1676 64.8518832,29.8522 C63.1674757,31.537 60.9274659,32.4648 58.5452553,32.4648 C56.1626448,32.4648 53.923035,31.537 52.2380275,29.8522 C50.5536201,28.1676 49.625816,25.9276 49.625816,23.5454 C49.625816,21.1628 50.5536201,18.9232 52.2380275,17.2384 Z" id="Shape"></path>
                <path d="M58.1118312,25.9995748 L58.1118312,27.6785736 C58.1118312,27.8560689 58.2606059,28 58.4438231,28 L59.6431925,28 C59.8264096,28 59.9749806,27.8560689 59.9749806,27.6785736 L59.9749806,26.0532774 C61.8424099,25.8299769 63,24.7756667 63,23.2933145 C63,21.3300073 61.2487373,20.8443138 59.8416947,20.4539821 C58.7521741,20.1517071 58.0906358,19.9282091 58.0906358,19.3724257 C58.0906358,18.9899915 58.4428041,18.7706397 59.0568568,18.7706397 C59.7412208,18.7706397 60.8246273,19.090684 61.7523298,19.5672954 C61.8322198,19.6083622 61.9253569,19.6164571 62.011361,19.5886186 C62.0969574,19.5613723 62.1674726,19.5015491 62.2068062,19.422772 L62.8599887,18.1096227 C62.9351913,17.9583865 62.8775156,17.7765476 62.727518,17.6922423 C61.9496092,17.2543284 60.9738097,16.9538303 59.9751844,16.8436608 L59.9751844,15.3214264 C59.9751844,15.1439311 59.8268172,15 59.6433963,15 L58.4440269,15 C58.2608097,15 58.112035,15.1439311 58.112035,15.3214264 L58.112035,16.9115789 C56.4753085,17.2282668 55.499509,18.2225563 55.499509,19.5781544 C55.499509,21.4867718 57.2291687,21.9458113 58.6194996,22.3146224 C59.7326611,22.6101847 60.4084655,22.8313134 60.4084655,23.4092096 C60.4084655,24.0449547 59.6868059,24.1397242 59.2565818,24.1397242 C58.3590419,24.1397242 57.098736,23.6735769 56.1922288,23.0060446 C56.1135616,22.9481957 56.0124763,22.9272675 55.9166898,22.948788 C55.8204956,22.9703086 55.7393828,23.0321062 55.6949542,23.1173987 L55.0354539,24.3859273 C54.9635121,24.5243302 55.0038647,24.692546 55.1310366,24.7863283 C55.959488,25.3968015 57.0166042,25.8268179 58.1118312,25.9995748 Z" id="Shape"></path>
            </g>
        </g>
        <text id="Financial" font-family="PingFangTC-Semibold, PingFang TC" font-size="20" font-weight="500" letter-spacing="1.559999" fill="#D8D8D8">
            <tspan x="45.4500045" y="118">Financial</tspan>
        </text>
    </g>
</svg>