<?xml version="1.0" encoding="UTF-8"?>
<svg width="234px" height="176px" viewBox="0 0 234 176" version="1.1" xmlns="http://www.w3.org/2000/svg" xmlns:xlink="http://www.w3.org/1999/xlink">
    <!-- Generator: Sketch 51 (57462) - http://www.bohemiancoding.com/sketch -->
    <title>goal01_bl</title>
    <desc>Created with Sketch.</desc>
    <defs></defs>
    <g id="goal01_bl" stroke="none" stroke-width="1" fill="none" fill-rule="evenodd">
        <g id="3695" transform="translate(35.000000, 43.000000)" fill="#285B98" fill-rule="nonzero">
            <path d="M82.5,0 C28.3747895,0 0,40.1368421 0,46.5 C0,52.864906 28.3747895,93 82.5,93 C136.621737,93 165,52.864906 165,46.5 C165,40.1368421 136.621737,0 82.5,0 Z M82.5,82.2700376 C62.2501579,82.2700376 45.8317895,66.2555075 45.8317895,46.5 C45.8317895,26.7444925 62.2501579,10.7299624 82.5,10.7299624 C102.749842,10.7299624 119.166474,26.7444925 119.166474,46.5 C119.166474,66.2555075 102.749842,82.2700376 82.5,82.2700376 Z M100.832368,46.5 C100.832368,56.3768797 92.6223158,64.3867669 82.5,64.3867669 C72.3742105,64.3867669 64.1676316,56.3768797 64.1676316,46.5 C64.1676316,36.6231203 72.3742105,28.6149812 82.5,28.6149812 C87.9710526,28.6149812 79.1426842,42.7887406 82.5,46.5 C85.3536316,49.6518609 100.832368,41.9636278 100.832368,46.5 Z" id="Shape"></path>
        </g>
    </g>
</svg>