<?xml version="1.0" encoding="UTF-8"?>
<svg width="234px" height="176px" viewBox="0 0 234 176" version="1.1" xmlns="http://www.w3.org/2000/svg" xmlns:xlink="http://www.w3.org/1999/xlink">
    <!-- Generator: Sketch 51 (57462) - http://www.bohemiancoding.com/sketch -->
    <title>goal02_bl</title>
    <desc>Created with Sketch.</desc>
    <defs></defs>
    <g id="goal02_bl" stroke="none" stroke-width="1" fill="none" fill-rule="evenodd">
        <g id="118753" transform="translate(54.000000, 25.000000)" fill="#285B98" fill-rule="nonzero">
            <path d="M4.4611399,67.4611399 L14.253886,67.4611399 C16.3212435,90.9637306 35.1450777,109.678756 58.5388601,111.746114 L58.5388601,121.53886 C58.5388601,123.932642 60.4974093,126 63,126 C65.3937824,126 67.4611399,124.041451 67.4611399,121.53886 L67.4611399,111.746114 C90.9637306,109.678756 109.678756,90.8549223 111.746114,67.4611399 L121.53886,67.4611399 C123.932642,67.4611399 126,65.5025907 126,63 C126,60.6062176 124.041451,58.5388601 121.53886,58.5388601 L111.746114,58.5388601 C109.678756,35.0362694 90.8549223,16.3212435 67.4611399,14.253886 L67.4611399,4.4611399 C67.4611399,2.06735751 65.5025907,0 63,0 C60.6062176,0 58.5388601,1.95854922 58.5388601,4.4611399 L58.5388601,14.253886 C35.0362694,16.3212435 16.3212435,35.1450777 14.253886,58.5388601 L4.4611399,58.5388601 C1.95854922,58.5388601 0,60.4974093 0,63 C3.86564701e-15,65.5025907 2.06735751,67.4611399 4.4611399,67.4611399 Z M41.1295337,58.5388601 L23.1761658,58.5388601 C25.2435233,39.9326425 40.0414508,25.134715 58.5388601,23.1761658 L58.5388601,41.1295337 C58.5388601,43.5233161 60.4974093,45.5906736 63,45.5906736 C65.3937824,45.5906736 67.4611399,43.6321244 67.4611399,41.1295337 L67.4611399,23.1761658 C86.0673575,25.2435233 100.865285,40.0414508 102.823834,58.5388601 L84.8704663,58.5388601 C82.4766839,58.5388601 80.4093264,60.4974093 80.4093264,63 C80.4093264,65.3937824 82.3678756,67.4611399 84.8704663,67.4611399 L102.823834,67.4611399 C100.756477,86.0673575 85.9585492,100.865285 67.4611399,102.823834 L67.4611399,84.8704663 C67.4611399,82.4766839 65.5025907,80.4093264 63,80.4093264 C60.6062176,80.4093264 58.5388601,82.3678756 58.5388601,84.8704663 L58.5388601,102.823834 C39.9326425,100.756477 25.134715,85.9585492 23.1761658,67.4611399 L41.1295337,67.4611399 C43.5233161,67.4611399 45.5906736,65.5025907 45.5906736,63 C45.5906736,60.6062176 43.5233161,58.5388601 41.1295337,58.5388601 Z" id="Shape"></path>
        </g>
    </g>
</svg>