<?xml version="1.0" encoding="UTF-8"?>
<svg width="234px" height="176px" viewBox="0 0 234 176" version="1.1" xmlns="http://www.w3.org/2000/svg" xmlns:xlink="http://www.w3.org/1999/xlink">
    <!-- Generator: Sketch 51 (57462) - http://www.bohemiancoding.com/sketch -->
    <title>goal03_bl</title>
    <desc>Created with Sketch.</desc>
    <defs></defs>
    <g id="goal03_bl" stroke="none" stroke-width="1" fill="none" fill-rule="evenodd">
        <g id="584644" transform="translate(53.000000, 47.000000)" fill="#285B98" fill-rule="nonzero">
            <path d="M125.220703,15.1055841 C123.445945,15.1055841 81.4708066,15.1055841 79.6068574,15.1055841 C81.984791,11.94751 83.3964844,8.02383451 83.3964844,3.77639602 C83.3964844,1.69081838 81.7043672,0 79.6171875,0 L46.4956816,0 C42.1734258,0 38.2875527,2.39977379 36.3550723,6.2625234 L32.9743652,13.0182441 C32.3301211,14.3057434 31.035082,15.1055841 29.5941621,15.1055841 C21.6858574,15.1055841 11.7017109,15.1055841 3.77929687,15.1055841 C1.69211719,15.1055841 0,16.7964025 0,18.8819801 L0,64.1987324 C0,66.28431 1.69211719,67.9751284 3.77929687,67.9751284 C4.73596289,67.9751284 39.1179902,67.9751284 40.258834,67.9751284 L50.965834,78.6741619 C54.0013652,81.7071114 58.4034902,82.7597188 62.4745488,81.4417566 L98.4521953,71.3268058 C100.591025,70.7256035 102.43885,69.5531584 103.846512,67.9751284 C106.367303,67.9751284 122.779781,67.9751284 125.220703,67.9751284 C127.307883,67.9751284 129,66.28431 129,64.1987324 L129,18.8819801 C129,16.7961507 127.307883,15.1055841 125.220703,15.1055841 Z M15.1171875,60.4223364 L7.55859375,60.4223364 L7.55859375,22.6583761 L15.1171875,22.6583761 L15.1171875,60.4223364 Z M99.0379863,61.3754987 C98.8734609,62.0051498 98.287418,63.5270374 96.4050762,64.0559846 C96.265998,64.0950074 60.3153105,74.2001396 60.178248,74.2454564 C58.8114023,74.7013932 57.3291621,74.3511955 56.3105156,73.3333308 L44.4964336,61.5283169 C43.7876895,60.8201167 42.8264883,60.4220846 41.8242188,60.4220846 C38.1091699,60.4220846 27.2091738,60.4220846 22.6757813,60.4220846 L22.6757813,22.6581244 L29.5941621,22.6581244 C33.9166699,22.6581244 37.802543,20.2583506 39.7350234,16.395601 L43.1157305,9.63988025 C43.7599746,8.35238096 45.0550137,7.52736431 46.4956816,7.52736431 L75.1903711,7.52736431 C73.6307812,11.923341 69.4274473,15.1053323 64.500252,15.1053323 L64.5,15.1053323 L61.6128691,15.1053323 C57.2906133,15.1053323 53.4047402,17.5051061 51.4722598,21.3678557 L39.9650566,44.3643452 C39.5014629,45.2905693 39.4389785,46.3665904 39.7919648,47.3401453 C40.1452031,48.3137002 40.8831738,49.0996941 41.8330371,49.5140906 C51.046207,53.5329312 61.7869687,49.6384599 66.2858437,40.6473645 L67.7290312,37.7637085 L76.4866699,37.7637085 C77.4962461,37.7637085 78.4451016,38.1564537 79.1588848,38.869689 L98.0538574,57.7504103 C99.4363242,59.1320677 99.2025117,60.7455959 99.0379863,61.3754987 Z M106.072518,56.6132116 C105.517465,55.0656445 104.619504,53.6298587 103.398539,52.409831 L84.5035664,33.5291097 C82.3622168,31.389152 79.5148945,30.2109164 76.4866699,30.2109164 L65.3934258,30.2109164 C63.9618281,30.2109164 62.6531836,31.0190652 62.0132227,32.2985081 L59.5254375,37.2697559 C57.4591699,41.3998743 53.2059492,43.7402328 48.8353184,43.5264888 L58.2331699,24.7454643 C58.8774141,23.4579651 60.1724531,22.6581244 61.6131211,22.6581244 C63.4614492,22.6581244 104.142809,22.6581244 106.072518,22.6581244 C106.072266,24.3982877 106.072266,54.9322118 106.072518,56.6132116 Z M121.441406,60.4223364 C118.406883,60.4223364 118.171559,60.4223364 113.630859,60.4223364 C113.630859,58.7627362 113.630859,24.3144517 113.630859,22.6583761 L121.441406,22.6583761 L121.441406,60.4223364 Z" id="Shape"></path>
        </g>
    </g>
</svg>