<svg id="圖層_1" data-name="圖層 1" xmlns="http://www.w3.org/2000/svg" viewBox="0 0 372.32 72.67"><defs><style>.cls-1{fill:#c9caca;}.cls-2,.cls-3{fill:#fff;}.cls-3{font-size:27.73px;font-family:SourceHanSansTW-Regular-B5pc-H, Source Han Sans TW;letter-spacing:0.2em;}</style></defs><title>logo-02</title><polygon class="cls-1" points="50.28 27.06 68.05 45.27 74.49 45.27 53.55 23.9 62.03 23.9 87.19 49.59 79.07 49.59 78.72 49.59 72.28 49.59 66.43 49.59 63.81 49.59 46.09 31.35 50.28 27.06"/><polygon class="cls-2" points="53.37 23.9 32.44 45.27 26.01 45.27 46.94 23.9 38.47 23.9 13.3 49.59 21.42 49.59 21.77 49.59 28.21 49.59 34.06 49.59 36.68 49.59 61.85 23.9 53.37 23.9"/><polygon class="cls-2" points="50.25 49.72 42.89 49.72 46.57 45.88 50.25 42.03 53.92 45.88 57.6 49.72 50.25 49.72"/><text class="cls-3" transform="translate(92.77 47.35)">集智顧問有限公司</text></svg>