<?xml version="1.0" encoding="UTF-8"?>
<svg width="216px" height="201px" viewBox="0 0 216 201" version="1.1" xmlns="http://www.w3.org/2000/svg" xmlns:xlink="http://www.w3.org/1999/xlink">
    <!-- Generator: Sketch 52.5 (67469) - http://www.bohemiancoding.com/sketch -->
    <title>whatwedo-03</title>
    <desc>Created with Sketch.</desc>
    <g id="whatwedo-03" stroke="none" stroke-width="1" fill="none" fill-rule="evenodd">
        <g id="1553203" transform="translate(24.000000, 36.000000)">
            <path d="M131.424212,85.5845872 L91.8790375,45.9875589 L100.118766,40.4540365 L91.9782718,32.3028007 C84.832749,25.1478489 74.1667107,23.7001442 65.5724337,27.9165843 L53.9889716,16 L16,54.0394296 L47.2055553,85.2861626 L43.4885428,97.1589868 L73.5512613,127.261375 C76.8062759,130.520685 82.57632,131.024091 85.9972727,127.939822 C89.7714599,124.537058 89.8858093,118.710704 86.3406495,115.160866 L88.4994872,117.322553 C91.7545018,120.582192 97.5248746,121.085927 100.945827,118.001329 C104.720014,114.598565 104.834364,108.772211 101.289204,105.222044 L103.577178,107.513037 C106.832192,110.772347 112.602236,111.276082 116.023189,108.191813 C119.797376,104.789049 119.911726,98.9626953 116.366566,95.4128574 L118.635481,97.6847668 C121.890496,100.944077 127.660211,101.447483 131.081164,98.3632139 C134.855023,94.9607787 134.969372,89.1344251 131.424212,85.5845872 Z" id="Path" fill="#F6D190"></path>
            <path d="M99,119.465827 L50.7651987,71.426547 C40.1109585,60.8154941 40.1109585,43.6117693 50.7651987,33.0007164 L60.9225714,22.8845169 L54.1943774,16 L16,54.0395554 L47.3740119,85.2863918 L43.6369339,97.1592552 L73.86227,127.262072 C77.125606,130.51218 82.9172179,131.023814 86.3556468,127.957631 C90.1429402,124.580848 90.2793805,118.802842 86.7844594,115.24016 L88.9083698,117.354145 C91.5000756,119.936004 95.6653054,120.754947 99,119.465827 Z" id="Path" fill="#ECBD83"></path>
            <path d="M33.4969667,99.5030333 C30.1676778,96.1737443 30.1676778,90.7762318 33.4969667,87.4469428 L38.4469428,82.4969667 C41.7762318,79.1676778 47.1737443,79.1676778 50.5030333,82.4969667 C53.8323222,85.8262557 53.8323222,91.2237682 50.5030333,94.5530572 L45.5530572,99.5030333 C42.2237682,102.832322 36.8259371,102.832322 33.4969667,99.5030333 Z" id="Path" fill="#D19A6E"></path>
            <path d="M45.668877,112.331123 C42.1103743,108.77262 42.1103743,103.003502 45.668877,99.4449993 L48.4449993,96.668877 C52.0035019,93.1103743 57.7726204,93.1103743 61.331123,96.668877 C64.8896257,100.22738 64.8896257,105.996498 61.331123,109.555001 L58.5550007,112.331123 C54.9964981,115.889626 49.2270391,115.889626 45.668877,112.331123 Z" id="Path" fill="#D19A6E"></path>
            <path d="M59.6360902,123.36391 C56.1213033,119.849123 56.1213033,114.150877 59.6360902,110.63609 C63.1508771,107.121303 68.8491229,107.121303 72.3639098,110.63609 C75.8786967,114.150877 75.8786967,119.849123 72.3639098,123.36391 C68.8491229,126.878697 63.1508771,126.878697 59.6360902,123.36391 Z" id="Path" fill="#D19A6E"></path>
            <path d="M113.859468,16 L102.708625,27.1290693 C94.3247071,22.6546961 83.7005507,23.8587501 76.630036,30.9154588 L62.5966627,44.9214303 C59.1344458,48.3768868 59.1344458,53.9789448 62.5966627,57.4344012 L62.5966627,57.4347319 C66.0588795,60.8901883 71.6722289,60.8901883 75.1341145,57.4347319 L85.2988282,47.289866 C87.4353857,45.1574804 90.8992588,45.1574804 93.0358163,47.289866 L125.809615,80 L156,49.8685649 L113.859468,16 Z" id="Path" fill="#D19A6E"></path>
            <path d="M156,49.4863901 L118.144714,19.4057114 L113.858667,16 L102.707787,27.0035956 C94.3238421,22.5796684 83.6996509,23.7701474 76.629113,30.7472959 L62.5956935,44.5953584 C59.9844473,47.1721146 59.3438092,50.9586354 60.6717917,54.1289968 L80.4977853,34.5648698 C84.4724578,30.6426958 90.1269006,28.9690954 95.8754185,30.1919351 C97.4571388,30.5282896 98.9676402,31.1516403 100.394335,31.9047605 L100.396323,31.9057411 C102.362293,32.9432426 104.785058,32.58891 106.361478,31.0333115 L106.57646,30.8211696 C109.11715,28.3140378 113.236247,28.3140378 115.776606,30.8211696 L145.345996,60 L156,49.4863901 Z" id="Path" fill="#C38C66"></path>
            <path d="M58.2049594,13.8803945 L45.1199802,0.795333265 C44.0595425,-0.265111088 42.3401537,-0.265111088 41.279716,0.795333265 L0.795328278,41.279646 C-0.265109426,42.3400904 -0.265109426,44.0594899 0.795328278,45.1196055 L13.8803075,58.2046667 C14.9407452,59.2651111 16.660134,59.2651111 17.7202429,58.2046667 L58.2046306,17.720354 C59.2650683,16.6599096 59.2650683,14.9408389 58.2049594,13.8803945 Z" id="Path" fill="#83D9FF"></path>
            <path d="M12.7079798,48.9598937 C9.54502202,45.7785607 9.54502202,40.6206909 12.7079798,37.4393578 L47,2.94811751 L44.8593232,0.795333265 C43.805004,-0.265111088 42.0955356,-0.265111088 41.0412164,0.795333265 L0.790739449,41.279646 C-0.263579816,42.3400904 -0.263579816,44.0594899 0.790739449,45.1196055 L13.8002219,58.2046667 C14.8545412,59.2651111 16.5640095,59.2651111 17.6180019,58.2046667 L19.7586786,56.0515537 L12.7079798,48.9598937 Z" id="Path" fill="#56C2F1"></path>
            <path d="M167.204671,45.1196055 L154.119683,58.2046667 C153.059244,59.2651111 151.339854,59.2651111 150.279416,58.2046667 L109.795329,17.720354 C108.73489,16.6599096 108.73489,14.9405101 109.795329,13.8803945 L122.880317,0.795333265 C123.940756,-0.265111088 125.660146,-0.265111088 126.720255,0.795333265 L167.204671,41.279646 C168.26511,42.3400904 168.26511,44.0594899 167.204671,45.1196055 Z" id="Path" fill="#4398D1"></path>
            <path d="M121.70798,10.0401063 C118.545022,13.2214393 118.545022,18.3793091 121.70798,21.5606422 L156,56.0518825 L153.859323,58.2046667 C152.805004,59.2651111 151.095536,59.2651111 150.041216,58.2046667 L109.790739,17.720354 C108.73642,16.6599096 108.73642,14.9405101 109.790739,13.8803945 L122.800222,0.795333265 C123.854541,-0.265111088 125.56401,-0.265111088 126.618002,0.795333265 L128.758679,2.94844633 L121.70798,10.0401063 Z" id="Path" fill="#3E8CC7"></path>
            <path d="M94.8419117,94.8124251 C93.7193628,95.8956585 93.7193628,97.6517703 94.8419117,98.7350038 L102.688307,106.301393 C105.329698,108.850598 109.601377,109.684954 113,108.411976 L98.9068589,94.8124251 C97.7843099,93.7291916 95.9644607,93.7291916 94.8419117,94.8124251 Z" id="Path" fill="#ECBD83"></path>
            <path d="M111.843242,86.8136296 C110.718919,87.898469 110.718919,89.6571843 111.843242,90.7420238 L119.702031,98.3196303 C122.347595,100.872615 126.596008,101.679249 130,100.404383 L115.91461,86.8136296 C114.790288,85.7287901 112.967564,85.7287901 111.843242,86.8136296 Z" id="Path" fill="#ECBD83"></path>
            <path d="M38.0617447,92.1730568 L43.1816249,87.0567777 C45.8331561,84.4071114 49.7649869,83.814163 53,85.2453384 C52.5723549,84.2796983 51.9641632,83.3723325 51.1724598,82.5808566 C47.7288955,79.1397145 42.1461176,79.1397145 38.7025534,82.5808566 L33.5826732,87.6971357 C30.1391089,91.1382778 30.1391089,96.7174583 33.5826732,100.158271 C34.3747061,100.949747 35.316316,101.572656 36.2826357,102 C34.8507825,98.7672623 35.4102134,94.8227231 38.0617447,92.1730568 Z" id="Path" fill="#C38C66"></path>
            <path d="M50.853198,104.458444 L53.4601949,101.85161 C56.0333014,99.2789798 59.8606694,98.7224503 63,100.111696 C62.5850034,99.174131 61.9832904,98.2739661 61.2146836,97.5058212 L61.2143638,97.5058212 C57.8726505,94.1647263 52.4549952,94.1647263 49.1132818,97.5058212 L46.506285,100.112336 C43.1645717,103.45343 43.1645717,108.870403 46.506285,112.211178 C47.2748919,112.979643 48.1841755,113.58508 49.1219143,114 C47.7327309,110.86157 48.2800915,107.031074 50.853198,104.458444 Z" id="Path" fill="#C38C66"></path>
            <path d="M64.6806405,114.686241 C67.1890755,112.175703 70.9395722,111.668792 74,113.024507 C73.5954338,112.109883 72.9895196,111.194946 72.2402306,110.445341 C68.9825067,107.184886 63.7007052,107.184886 60.4432929,110.445341 C57.185569,113.705796 57.185569,118.992026 60.4432929,122.252169 C61.1925819,123.002086 62.0861807,123.595095 63.0003506,124 C61.6454591,120.936695 62.1722056,117.196779 64.6806405,114.686241 Z" id="Path" fill="#C38C66"></path>
            <path d="M130,76.1987564 L102.553561,48.5745412 C100.467683,46.4751529 97.0858777,46.4751529 95,48.5745412 L126.223219,80 L130,76.1987564 Z" id="Path" fill="#C38C66"></path>
        </g>
    </g>
</svg>