<?xml version="1.0" encoding="UTF-8"?>
<svg width="216px" height="201px" viewBox="0 0 216 201" version="1.1" xmlns="http://www.w3.org/2000/svg" xmlns:xlink="http://www.w3.org/1999/xlink">
    <!-- Generator: Sketch 52.5 (67469) - http://www.bohemiancoding.com/sketch -->
    <title>whatwedo-01</title>
    <desc>Created with Sketch.</desc>
    <g id="whatwedo-01" stroke="none" stroke-width="1" fill="none" fill-rule="evenodd">
        <g id="417782" transform="translate(29.000000, 13.000000)">
            <path d="M158.720794,78.4993794 C158.720794,121.796008 123.190081,156.215931 79.3607075,156.215931 C35.531334,156.215931 0.00031027668,121.796008 0.00031027668,78.4993794 C0.00031027668,35.202751 35.531334,0.103942688 79.3607075,0.103942688 C123.190081,0.103942688 158.720794,35.2030613 158.720794,78.4993794 Z" id="Path" fill="#4982AA"></path>
            <g id="Group" transform="translate(0.000000, 2.792490)" fill="#6CB8DD">
                <path d="M57.4961304,0.24294664 C40.6782036,5.07829842 26.1302609,15.3285988 15.8691008,28.9773597 C21.5294783,31.1852885 28.3254684,33.0581186 35.9151462,34.5387589 C38.0126166,28.2910277 40.590085,22.465583 43.6199368,17.2091858 C47.6979032,10.1361186 52.3864941,4.43819763 57.4961304,0.24294664 Z" id="Path"></path>
                <path d="M12.7160692,33.4906443 C5.10063834,45.2243775 0.495511858,59.0822648 0.00031027668,73.9643755 L29.4179526,73.9643755 C29.6354565,61.9026798 31.3211897,50.2682352 34.3274605,39.6744585 C26.0986126,38.0402312 18.7534328,35.9570336 12.7160692,33.4906443 Z" id="Path"></path>
            </g>
            <g id="Group" transform="translate(81.913043, 0.000000)" fill="#B3DCF4">
                <path d="M64.230996,36.2806522 C58.1837036,38.7523162 50.8484526,40.8395474 42.6236383,42.4737747 C45.628668,53.066 47.3134704,64.6976522 47.5309743,76.7568656 L76.9486166,76.7568656 C76.4531047,61.8735138 71.847668,48.0150059 64.230996,36.2806522 Z" id="Path"></path>
                <path d="M28.6860099,22.6781225 C20.8893775,9.15285178 10.8584427,1.24234783 0.196715415,0.103632411 L0.196715415,41.2053636 C12.78433,41.0787708 24.9062194,40.060753 35.7075711,38.2921759 C33.7717549,32.6677905 31.4220296,27.4241146 28.6860099,22.6781225 Z" id="Path"></path>
            </g>
            <path d="M129.445259,82.1153439 C129.40182,84.5057154 129.301601,86.8973281 129.143049,89.2529486 C129.047794,90.6678103 127.869984,91.751917 126.472498,91.751917 C126.411684,91.751917 126.35118,91.7497451 126.289745,91.7457115 C124.813449,91.6464229 123.697073,90.3690138 123.796672,88.8927174 C123.947466,86.6559328 124.042411,84.3856383 124.08554,82.1147233 L96.6645277,82.1147233 C95.1845079,82.1147233 93.9852885,80.9151937 93.9852885,79.4354842 C93.9852885,77.9554644 95.1845079,76.7562451 96.6645277,76.7562451 L124.085229,76.7562451 C123.865553,64.9955178 122.205573,53.6831403 119.247706,43.4393557 C107.944326,45.3391798 95.2571126,46.4325949 82.1100692,46.5632213 L82.1100692,70.8436126 C82.1100692,72.3236324 80.9108498,73.5228518 79.43083,73.5228518 C77.9508103,73.5228518 76.7515909,72.3236324 76.7515909,70.8436126 L76.7515909,46.5632213 C63.6352648,46.431664 50.9350198,45.3357668 39.6155059,43.4337708 C36.6567075,53.679417 34.9961067,64.9936561 34.7764308,76.7565553 L62.2511206,76.7565553 C63.7311403,76.7565553 64.9303597,77.9557747 64.9303597,79.4357945 C64.9303597,80.915504 63.7311403,82.1150336 62.2511206,82.1150336 L34.7764308,82.1150336 C34.8180079,84.3065178 34.9076779,86.4970711 35.0488538,88.655666 C35.1456601,90.1322727 34.0274229,91.4078202 32.5511265,91.5049368 C31.0754506,91.5992609 29.7989723,90.4831957 29.7018557,89.0068992 C29.5526126,86.7325711 29.4582885,84.4238024 29.4164012,82.1150336 L0,82.1150336 C0.214401186,88.5815099 1.20356324,94.9260474 2.92249605,101.036326 C13.094917,133.411215 43.3413083,156.895437 79.0740119,156.895437 C121.46215,156.895437 156.901642,123.14385 158.721415,82.114413 L129.445259,82.114413 L129.445259,82.1153439 Z" id="Path" fill="#6CB8DD"></path>
            <path d="M101.36584,3.03543676 C106.475476,7.23068775 111.164377,12.9286087 115.242034,20.0022964 C118.273126,25.2605553 120.850905,31.0875514 122.948996,37.3380751 C130.53464,35.8571245 137.33063,33.9842945 142.995042,31.7729526 C132.732951,18.1226403 118.184698,7.87109881 101.36584,3.03543676 Z" id="Path" fill="#B3DCF4"></path>
            <path d="M76.7515909,0.103942688 C66.0901739,1.2426581 56.0589289,9.15285178 48.2622964,22.6784328 C45.5278281,27.4219427 43.1793439,32.6625158 41.2429071,38.284419 C52.0619447,40.0560988 64.1937628,41.0778399 76.7515909,41.2053636 L76.7515909,0.103942688 Z" id="Path" fill="#6CB8DD"></path>
            <g id="Group" transform="translate(44.369565, 0.000000)" fill="#B3DCF4">
                <path d="M1.58644466,38.9949526 C11.167168,40.3272806 21.616666,41.0961462 32.3820257,41.2053636 L32.3820257,0.103942688 C25.9090336,0.79523913 19.6693696,3.98736561 14.0204723,9.41224308 C7.93749802,18.12233 3.62092885,28.1554368 1.58644466,38.9949526 Z" id="Path"></path>
                <path d="M84.7734842,89.2526383 C84.6782292,90.6675 83.500419,91.7516067 82.1029328,91.7516067 C82.0421186,91.7516067 81.9816146,91.7494348 81.9201798,91.7454012 C80.4438834,91.6461126 79.3275079,90.3687036 79.4271067,88.8924071 C79.5779012,86.6556225 79.6728458,84.3853281 79.7159743,82.114413 L52.2949625,82.114413 C50.8149427,82.114413 49.6157233,80.9148834 49.6157233,79.4351739 C49.6157233,77.9551542 50.8149427,76.7559348 52.2949625,76.7559348 L79.715664,76.7559348 C79.4959881,64.9952075 77.8360079,53.68283 74.8781403,43.4390455 C63.5747609,45.3388696 50.8875474,46.4322846 37.740504,46.5629111 L37.740504,70.8433024 C37.740504,72.3233221 36.5412846,73.5225415 35.0612648,73.5225415 C33.5812451,73.5225415 32.3820257,72.3233221 32.3820257,70.8433024 L32.3820257,46.5632213 C21.3644111,46.4527628 10.6440415,45.6593854 0.785310277,44.2817569 C0.445557312,47.2089071 0.265286561,50.1844605 0.265286561,53.202832 C0.265286561,61.421751 1.56534585,69.3353577 3.9622332,76.7565553 L17.8818656,76.7565553 C19.3618854,76.7565553 20.5611047,77.9557747 20.5611047,79.4357945 C20.5611047,80.915504 19.3618854,82.1150336 17.8818656,82.1150336 L5.91759684,82.1150336 C17.3267806,110.073755 44.7819229,129.780668 76.8434328,129.780668 C83.774083,129.780668 90.5222905,129.002184 96.9074743,127.276115 C107.292435,114.987917 113.294427,99.1079565 114.35154,82.1150336 L85.0756937,82.1150336 C85.0319447,84.5057154 84.9320356,86.8970178 84.7734842,89.2526383 Z" id="Path"></path>
            </g>
            <path d="M136.823018,108.252431 L136.669741,108.365682 C136.666949,108.361958 136.663536,108.358545 136.660743,108.355443 L136.80254,108.252431 L136.823018,108.252431 Z M136.670672,108.252431 L136.635921,108.323794 C136.631267,108.318209 136.626923,108.312625 136.622269,108.30704 L136.650504,108.252431 L136.670672,108.252431 Z M95.6778478,95.4975771 L95.4842352,95.6412352 C95.4805119,95.6362708 95.4764783,95.6322372 95.4730652,95.6272727 L95.6524051,95.4975771 L95.6778478,95.4975771 Z M95.485166,95.4975771 L95.4417273,95.5881779 C95.4361423,95.5810415 95.4299368,95.5742154 95.4243518,95.5667688 L95.4600336,95.4975771 L95.485166,95.4975771 Z M44.704664,108.252431 L44.5510771,108.365682 C44.5485949,108.361958 44.5448715,108.358545 44.5423893,108.355443 L44.6841858,108.252431 L44.704664,108.252431 Z M44.5520079,108.252431 L44.5172569,108.323794 C44.5126028,108.318209 44.5082589,108.312625 44.5036047,108.30704 L44.5318399,108.252431 L44.5520079,108.252431 Z" id="Shape" fill="#EDBA89" fill-rule="nonzero"></path>
            <path d="M142.536763,109.486401 L142.536763,104.344496 C142.536763,102.563818 142.266202,100.845196 141.765105,99.227413 C141.756107,99.1997984 141.747109,99.1715632 141.738111,99.1442589 C141.72601,99.1060949 141.712358,99.0682411 141.699947,99.0303874 C139.365425,92.3460968 133.200227,90.1781937 129.116676,89.4813123 C128.917478,90.7829229 127.794277,91.7525375 126.472808,91.7525375 C126.411994,91.7525375 126.35149,91.7503656 126.290055,91.746332 C126.176184,91.7388854 126.065105,91.7218202 125.955577,91.7004111 L125.955577,125.74583 L121.423055,125.74583 C121.665381,126.967079 121.627528,128.814777 121.625356,130.305346 C121.622563,132.53096 120.666291,133.226291 120.374941,133.984917 C120.083591,134.743543 114.480925,146.482862 113.460425,140.251265 C112.84918,136.519877 110.865891,133.692326 109.37284,132.022727 L109.344605,132.034208 C109.054806,131.706245 108.755079,131.391004 108.445733,131.089415 C108.433322,131.076694 108.422462,131.066144 108.415636,131.060249 L108.389573,131.034496 C108.260498,130.909455 108.131733,130.787516 108.019413,130.685435 C107.958289,130.628654 107.896854,130.574666 107.835419,130.520988 L107.824559,130.51199 C107.743887,130.439075 107.663215,130.367401 107.590921,130.305656 C107.468051,130.199231 107.345182,130.09715 107.221692,129.996931 C107.1978,129.976453 107.172668,129.956905 107.147536,129.937047 C105.733605,128.796781 104.154296,127.888291 102.691342,127.373231 L89.7537352,122.188198 L89.7537352,121.559577 C93.9598458,119.200854 96.8783083,115.154225 97.7945553,110.47215 C98.040915,110.437709 98.2826206,110.383411 98.5150178,110.310186 C99.1523261,110.112229 99.7716383,109.830188 100.354648,109.470577 C100.699986,109.258038 101.012745,109.0033 101.28796,108.710089 C101.625852,108.488551 101.931785,108.223885 102.199864,107.920125 C103.347267,106.622237 104.0457,105.006937 104.211077,103.303828 L104.211077,101.741585 C104.052215,100.090292 103.393188,98.5206028 102.327387,97.2574664 L102.327387,91.158668 C102.245164,90.5806225 102.171628,89.917251 102.107711,89.1589348 C101.875625,86.4061601 101.245763,84.0821877 100.34565,82.1150336 L96.6642174,82.1150336 C95.1841976,82.1150336 93.9849783,80.915504 93.9849783,79.4357945 C93.9849783,78.0218636 95.0805652,76.8667036 96.4690534,76.7661739 C91.4639802,72.1840079 84.6155534,71.495504 82.0464625,71.4049032 C82.0231917,71.5119486 81.9952668,71.6174427 81.9605158,71.7192134 L81.9605158,147.375217 L54.7365296,147.375217 L54.7365296,134.789775 L50.3746601,133.050364 L50.3610079,133.067739 L40.5177905,129.12133 C43.7204664,127.220265 45.9656285,124.103225 46.7562134,120.500292 C46.8676028,120.476091 46.9771304,120.446615 47.0844862,120.412484 C47.6243676,120.244935 48.1487352,120.005711 48.6405237,119.703502 C48.9331146,119.523852 49.1996423,119.309451 49.4366937,119.063711 C49.719666,118.873202 49.9768854,118.64763 50.2058696,118.38886 C51.3250375,117.12231 51.941247,115.498322 51.941247,113.815692 C51.941247,112.235142 51.3951601,110.703927 50.4174783,109.487022 L50.4174783,104.344496 C50.4174783,103.520711 50.358836,102.710579 50.2471364,101.917202 C48.6495217,91.5468241 39.1646739,89.5899091 35.0224802,89.2327806 C34.8387964,90.4509269 33.8297767,91.4208518 32.5501957,91.5046265 C32.0506502,91.5368953 31.5753063,91.4270573 31.1592253,91.2142075 L31.1592253,140.90781 C44.5026739,150.942779 61.0906858,156.895437 79.0724605,156.895437 C102.280846,156.895437 123.172706,146.988302 137.753848,131.172879 L132.635213,129.120709 C135.837889,127.219644 138.083051,124.102605 138.873636,120.499672 C138.984715,120.47547 139.094553,120.445684 139.201909,120.411864 C139.741791,120.244314 140.266158,120.005091 140.758257,119.702881 C141.050848,119.523231 141.317375,119.30883 141.554427,119.063091 C141.837399,118.872581 142.094619,118.64701 142.323603,118.388239 C143.442771,117.12169 144.05898,115.497702 144.05898,113.815071 C144.060842,112.234832 143.514445,110.703617 142.536763,109.486401 Z" id="Path" fill="#87BED5"></path>
            <path d="M149.5757,147.18781 C149.5757,146.98613 149.570115,146.789105 149.563599,146.591458 C149.561737,146.563844 149.562047,146.535298 149.560496,146.508304 C149.556773,146.408706 149.548395,146.310968 149.541879,146.212921 C149.534433,146.087569 149.529158,145.961287 149.518609,145.837486 C149.513644,145.786911 149.506198,145.736336 149.501854,145.68483 C149.485409,145.51635 149.468344,145.3488 149.446625,145.184974 C149.445694,145.171012 149.442591,145.15736 149.440419,145.143397 C148.990828,141.780619 147.459613,139.324468 145.738508,137.650836 C145.730441,137.642769 145.722374,137.635632 145.714617,137.627565 C145.624326,137.540067 145.534346,137.455051 145.443125,137.371587 C145.398134,137.33001 145.352834,137.290915 145.307223,137.2512 C145.255097,137.203727 145.201729,137.156565 145.149292,137.111575 C145.062105,137.036178 144.974607,136.963263 144.886488,136.891899 C144.87749,136.884453 144.867561,136.876696 144.857632,136.868939 C143.753978,135.975962 142.648462,135.395125 141.78186,135.095397 C141.778757,135.094777 141.775344,135.092294 141.77069,135.091053 L141.74866,135.083296 C141.745868,135.082986 141.743075,135.081435 141.739662,135.080504 L130.368022,130.520988 L127.527749,133.469237 L124.622628,136.29896 L121.716887,133.469237 L118.876615,130.520988 L107.504974,135.080504 C107.502492,135.081435 107.498769,135.082986 107.496907,135.083296 L107.473947,135.091053 C107.470223,135.091984 107.46619,135.094777 107.462777,135.095397 C106.596174,135.395125 105.491279,135.975962 104.387004,136.868939 C104.377696,136.876385 104.367457,136.884142 104.359079,136.891899 C104.271271,136.963263 104.182532,137.036178 104.095964,137.111575 C104.043217,137.156565 103.98954,137.203727 103.937723,137.2512 C103.891492,137.290915 103.846502,137.33001 103.802443,137.371587 C103.710601,137.454741 103.620931,137.540067 103.53033,137.627565 C103.522263,137.635322 103.515126,137.642458 103.506128,137.650836 C101.786265,139.324468 100.254429,141.780619 99.8045277,145.143397 C99.802666,145.15736 99.8001838,145.171012 99.7980119,145.184974 C99.776913,145.34849 99.7604684,145.51635 99.7437134,145.68483 C99.7393696,145.736026 99.7319229,145.786291 99.7278893,145.837486 C99.7167194,145.961287 99.7108241,146.087569 99.7033775,146.212921 C99.6971719,146.311279 99.6887945,146.408706 99.6847609,146.508304 C99.6832095,146.535298 99.68383,146.564154 99.6825889,146.591458 C99.6751423,146.789105 99.6698676,146.98582 99.6698676,147.18781 L99.6698676,148.995482 L99.6704881,148.995482 L99.6704881,154.518407 C99.7440237,155.380356 100.190512,156.896057 102.41985,156.896057 L105.136943,156.896057 L144.109866,156.896057 L146.827269,156.896057 C149.056296,156.896057 149.501233,155.380356 149.57663,154.518407 L149.57663,148.995482 L149.57663,147.18781 L149.5757,147.18781 Z" id="Path" fill="#6598CB"></path>
            <g id="Group" transform="translate(99.598814, 130.626482)" fill="#4982AA">
                <path d="M14.3108913,23.4541245 L14.3186482,14.0155079 C14.3186482,13.7353281 14.3112016,13.4619743 14.3006522,13.1669012 C14.3000316,13.1305988 14.2984802,13.0942964 14.2966186,13.0583043 C14.2922747,12.9518794 14.2854486,12.8473162 14.2776917,12.7421324 L14.2652806,12.5404526 C14.257834,12.4026897 14.2494565,12.2649269 14.237666,12.1259229 C14.2327016,12.0700731 14.226496,12.0145336 14.21967,11.9596146 L14.2143953,11.911832 C14.1917451,11.6809862 14.1687846,11.4513814 14.138998,11.2270514 C14.1343439,11.1895079 14.1293794,11.1522747 14.1234842,11.1169032 C13.6683083,7.75474506 12.4563676,5.13600988 11.1125593,3.16699407 L7.90522925,4.45309091 C7.90274704,4.45402174 7.89902372,4.45557312 7.89716206,4.4558834 L7.87420158,4.46364032 C7.87047826,4.46457115 7.86644466,4.46736364 7.86303162,4.46798419 C6.99642885,4.76771146 5.8915336,5.34854941 4.78725889,6.24152569 C4.77795059,6.24897233 4.76771146,6.25672925 4.75933399,6.26448617 C4.67152569,6.3358498 4.58278656,6.40876482 4.49590909,6.48416206 C4.44316206,6.52915217 4.38948419,6.57631423 4.33766798,6.62378656 C4.29143676,6.66350198 4.24644664,6.70259684 4.20238735,6.74417391 C4.11054545,6.82732806 4.02087549,6.91265415 3.9302747,7.00046245 C3.92220751,7.00821937 3.91507115,7.01535573 3.90607312,7.0237332 C2.18620949,8.69736561 0.654373518,11.1535158 0.204472332,14.5162945 C0.202610672,14.5302569 0.200128458,14.5439091 0.197956522,14.5578715 C0.176857708,14.7213874 0.160413043,14.889247 0.143658103,15.0577273 C0.139314229,15.1089229 0.131867589,15.1591877 0.127833992,15.2103834 C0.116664032,15.3341838 0.110768775,15.4604664 0.103322134,15.5858182 C0.0971166008,15.6841759 0.0887391304,15.7816028 0.0847055336,15.8812016 C0.0831541502,15.9081957 0.0837747036,15.9370514 0.0825335968,15.9643557 C0.0750869565,16.162002 0.069812253,16.3587174 0.069812253,16.5603972 L0.069812253,18.3680692 L0.0704328063,18.3680692 L0.0704328063,23.8909941 C0.143968379,24.7529427 0.590456522,26.2686443 2.81979447,26.2686443 L5.53688735,26.2686443 L13.3142826,26.2686443 C13.9103241,25.4243814 14.2258755,24.4271522 14.3108913,23.4541245 Z" id="Path"></path>
                <path d="M19.223502,0.0223399209 L7.91019368,4.45247036 L7.87513241,4.46426087 C4.9774585,5.49872332 0.070743083,9.20994269 0.070743083,16.5607075 L0.070743083,23.8913043 C0.144278656,24.753253 0.590766798,26.2689545 2.82010474,26.2689545 L3.39194466,26.2689545 L3.39194466,16.5603972 C3.39194466,9.20963241 8.29866008,5.49810277 11.1975751,4.46395059 L11.2326364,4.45216008 L20.1748103,0.95037747 L19.223502,0.0223399209 Z" id="Path"></path>
            </g>
            <path d="M125.208121,89.1589348 L123.981287,89.1589348 C115.60816,89.1589348 108.796346,95.9713696 108.796346,104.344496 L108.796346,106.369672 L108.796346,108.266083 L108.796346,111.468759 C108.796346,111.468759 112.253449,111.125593 112.678217,109.449168 L112.676045,109.447617 C112.822496,109.289065 112.944435,109.107553 113.031002,108.906184 C114.99133,108.8463 124.152249,108.775557 129.384134,102.457083 C130.008101,104.283061 132.120154,107.741715 136.184158,108.830476 C136.267002,109.050773 136.392354,109.24935 136.543458,109.421553 L136.509949,109.448547 C136.935028,111.124972 140.392751,111.468138 140.392751,111.468138 L140.392751,108.252431 L140.392751,106.369051 L140.392751,104.343875 C140.393682,95.9716798 133.580626,89.1589348 125.208121,89.1589348 Z M136.656709,108.358545 L136.80316,108.252431 L136.823638,108.252431 L136.585346,108.428978 L136.656709,108.358545 Z M136.581933,108.403536 L136.598688,108.35296 L136.650504,108.252431 L136.670362,108.252431 L136.609547,108.377783 L136.581933,108.403536 Z M136.180125,108.715364 L136.17454,108.707296 L136.549043,108.436115 L136.460615,108.521751 L136.186951,108.724051 L136.180125,108.715364 Z M136.48854,108.627555 L136.371255,108.870192 C136.370324,108.869881 136.370324,108.869881 136.369393,108.869881 L136.353259,108.862435 C136.350466,108.860883 136.346743,108.859332 136.345192,108.85747 L136.536943,108.477692 L136.541597,108.472727 L136.48854,108.627555 Z" id="Shape" fill="#694B4B" fill-rule="nonzero"></path>
            <path d="M111.473103,108.266083 L111.473103,106.369672 L111.473103,104.344496 C111.473103,96.2143162 117.89583,89.55733 125.933237,89.1778617 C125.692152,89.1663814 125.450757,89.1589348 125.20781,89.1589348 L123.980976,89.1589348 C115.60785,89.1589348 108.796036,95.9713696 108.796036,104.344496 L108.796036,106.369672 L108.796036,108.266083 L108.796036,111.468759 C108.796036,111.468759 110.323528,111.316103 111.472792,110.722543 L111.472792,108.266083 L111.473103,108.266083 Z" id="Path" fill="#563B3B"></path>
            <path d="M138.569875,109.267346 C137.988107,109.085524 137.357004,109.191638 136.866767,109.550939 C136.377771,109.912101 136.088283,110.48332 136.088283,111.091462 L136.088283,116.540542 C136.088283,117.147753 136.37684,117.719593 136.866767,118.080134 C137.199383,118.324943 137.597779,118.451846 138.000208,118.451846 C138.190717,118.451846 138.382779,118.423611 138.568634,118.364968 C138.935071,118.251407 139.296233,118.08665 139.639089,117.875662 C139.840769,117.751862 140.018247,117.590518 140.161905,117.40187 C140.372583,117.293273 140.561852,117.146202 140.719162,116.969034 C141.49113,116.095605 141.917761,114.975816 141.917761,113.815381 C141.917451,111.718842 140.572091,109.891002 138.569875,109.267346 Z" id="Path" fill="#FBCB99"></path>
            <path d="M112.37818,109.550939 C111.888563,109.191638 111.256219,109.085524 110.676002,109.266725 C108.673787,109.891002 107.328117,111.719152 107.328117,113.815381 C107.328117,115.912542 108.674097,117.741002 110.676002,118.364968 C110.861858,118.423611 111.054229,118.451846 111.24536,118.451846 C111.648409,118.451846 112.045253,118.324632 112.37818,118.080134 C112.868727,117.719593 113.157595,117.148063 113.157595,116.540542 L113.157595,111.091462 C113.157285,110.48363 112.868417,109.912101 112.37818,109.550939 Z" id="Path" fill="#EDBA89"></path>
            <path d="M129.842413,126.0378 C129.466668,125.6785 128.962468,125.489852 128.438411,125.509089 L128.372632,125.512812 C128.256589,125.516846 128.140545,125.531119 128.026364,125.556251 C127.287595,125.720698 126.534864,125.803852 125.79082,125.803852 L123.453816,125.803852 C122.687123,125.803852 121.913292,125.716354 121.151563,125.542289 C120.583447,125.410731 119.987715,125.546322 119.534091,125.908725 C119.078294,126.272059 118.812077,126.82249 118.812077,127.404879 L118.812077,132.966279 L118.811457,132.984895 C118.780739,133.537188 118.991107,134.075518 119.386089,134.460571 L123.227625,138.202508 C123.585063,138.551259 124.06382,138.744872 124.561814,138.744872 C124.571743,138.744872 124.582292,138.744872 124.592221,138.744872 C125.101385,138.735563 125.585417,138.526126 125.938822,138.159379 L129.896091,134.050696 C130.239877,133.694808 130.430698,133.219775 130.430698,132.725194 L130.430698,127.420083 C130.431939,126.898198 130.219399,126.398652 129.842413,126.0378 Z" id="Path" fill="#FBCB99"></path>
            <path d="M124.94935,137.628186 L121.108125,133.886249 C120.711901,133.500885 120.502775,132.962866 120.532872,132.410573 L120.534733,132.391957 L120.534733,126.829937 C120.534733,126.340941 120.723071,125.875526 121.053826,125.523672 C120.515806,125.429968 119.962893,125.568042 119.534711,125.908415 C119.078915,126.271749 118.812698,126.82218 118.812698,127.404569 L118.812698,132.965968 L118.812077,132.984585 C118.78136,133.536877 118.991727,134.075208 119.386709,134.460261 L123.228245,138.202198 C123.585684,138.550949 124.064441,138.744561 124.562435,138.744561 C124.572364,138.744561 124.582913,138.744561 124.592842,138.744561 C125.102006,138.735253 125.586038,138.525816 125.939443,138.159069 L125.955577,138.141073 C125.579832,138.075915 125.227047,137.899057 124.94935,137.628186 Z" id="Path" fill="#EDBA89"></path>
            <path d="M135.800036,107.706034 C135.568879,107.620397 135.350445,107.519557 135.137905,107.413132 C131.92499,105.914186 130.591731,103.965028 130.055573,102.80118 C130.022684,102.757741 129.991346,102.709338 129.958146,102.648213 C129.573713,101.942024 128.9755,102.388822 128.9755,102.388822 L128.973949,102.387271 C125.973263,104.688903 122.696121,106.033953 119.971271,106.817091 C118.910745,107.130781 117.895209,107.357283 116.97586,107.52235 C115.149881,107.857449 113.975484,107.901508 113.975484,107.901508 C112.975773,107.973802 112.200391,108.805964 112.200391,109.809089 L112.200391,117.610996 C112.200391,123.815289 117.248903,128.8638 123.454126,128.8638 L125.791441,128.8638 C131.995733,128.8638 137.044245,123.815289 137.044245,117.610996 L137.044245,109.497881 C137.044555,108.698919 136.548733,107.984662 135.800036,107.706034 Z" id="Path" fill="#FBCB99"></path>
            <path d="M114.495198,117.610686 L114.495198,109.808779 C114.495198,108.805654 115.269648,107.973492 116.268739,107.901198 C116.268739,107.901198 117.444067,107.857138 119.269425,107.52235 C120.189706,107.357283 121.204931,107.130781 122.266698,106.817091 C124.676617,106.123623 127.520923,104.988941 130.223743,103.140933 C130.160447,103.022407 130.103976,102.908536 130.054642,102.800559 C130.021753,102.757121 129.990415,102.708717 129.957215,102.647593 C129.572783,101.941403 128.974569,102.388202 128.974569,102.388202 L128.973018,102.38665 C125.972332,104.688283 122.69519,106.033332 119.97034,106.81647 C118.909814,107.13016 117.894279,107.356662 116.974929,107.521729 C115.148951,107.856828 113.974553,107.900577 113.974553,107.900577 C112.974842,107.972872 112.19946,108.805034 112.19946,109.808158 L112.19946,117.610065 C112.19946,123.814358 117.247972,128.86287 123.453196,128.86287 L125.74614,128.86287 C119.543089,128.86349 114.495198,123.814978 114.495198,117.610686 Z" id="Path" fill="#EDBA89"></path>
            <path d="M57.4576561,147.18781 C57.4576561,146.98613 57.4520711,146.789105 57.4455553,146.591458 C57.4436937,146.563844 57.444004,146.535298 57.4424526,146.508304 C57.4387292,146.408706 57.4303518,146.310968 57.423836,146.212921 C57.4163893,146.087569 57.4111146,145.961287 57.4005652,145.837486 C57.3956008,145.786911 57.3881542,145.736336 57.3838103,145.68483 C57.3673656,145.51635 57.3503004,145.3488 57.328581,145.184974 C57.3276502,145.171012 57.3245474,145.15736 57.3223755,145.143397 C56.8727846,141.780619 55.3415692,139.324468 53.6204644,137.650836 C53.6127075,137.642769 53.60433,137.635632 53.5965731,137.627565 C53.5062826,137.540067 53.4163024,137.455051 53.325081,137.371587 C53.2800909,137.33001 53.2347905,137.290915 53.1891798,137.2512 C53.1370534,137.203727 53.0836858,137.156565 53.031249,137.111575 C52.9440613,137.036178 52.8565632,136.963263 52.7684447,136.891899 C52.7594466,136.884453 52.7495178,136.876696 52.7395889,136.868939 C51.6359348,135.975962 50.530419,135.395125 49.6638162,135.095397 C49.6607134,135.094777 49.6569901,135.092294 49.6526462,135.091053 L49.6309269,135.083296 C49.6281344,135.082986 49.6253419,135.081435 49.6219289,135.080504 L38.2502885,130.520988 L35.4100158,133.469237 L32.5048953,136.29896 L29.5991542,133.469237 L26.7588814,130.520988 L15.3872411,135.080504 C15.3847589,135.081435 15.3810356,135.082986 15.3791739,135.083296 L15.3565237,135.091053 C15.3528004,135.091984 15.3490771,135.094777 15.3453538,135.095397 C14.478751,135.395125 13.374166,135.975962 12.269581,136.868939 C12.2602727,136.876385 12.2500336,136.884142 12.2416561,136.891899 C12.1538478,136.963263 12.0651087,137.036178 11.9785415,137.111575 C11.9251739,137.156565 11.8721166,137.203727 11.8203004,137.2512 C11.7740692,137.290915 11.7290791,137.33001 11.6850198,137.371587 C11.5931779,137.454741 11.5035079,137.540067 11.4129071,137.627565 C11.4042194,137.635322 11.3973933,137.642458 11.3887055,137.650836 C9.6688419,139.324468 8.13700593,141.780619 7.68710474,145.143397 C7.68524308,145.15736 7.68276087,145.171012 7.68058893,145.184974 C7.65949012,145.34849 7.64273518,145.51635 7.62629051,145.68483 C7.62194664,145.736026 7.6145,145.786291 7.6104664,145.837486 C7.59929644,145.961287 7.59340119,146.087569 7.58595455,146.212921 C7.57974901,146.311279 7.57137154,146.408706 7.56733794,146.508304 C7.56578656,146.535298 7.56640711,146.564154 7.56516601,146.591458 C7.55771937,146.789105 7.55244466,146.98582 7.55244466,147.18781 L7.55244466,148.995482 L7.55306522,148.995482 L7.55306522,154.518407 C7.62660079,155.380356 8.07308893,156.896057 10.3024269,156.896057 L13.0195198,156.896057 L51.9921324,156.896057 L54.7095356,156.896057 C56.9385632,156.896057 57.3838103,155.380356 57.4588972,154.518407 L57.4588972,148.995482 L57.4588972,147.18781 L57.4576561,147.18781 Z" id="Path" fill="#6598CB"></path>
            <path d="M26.7036522,130.648822 L15.3903439,135.078953 L15.3552826,135.090743 C12.4576087,136.125206 7.55089328,139.836425 7.55089328,147.18719 L7.55089328,154.517787 C7.62442885,155.379735 8.070917,156.895437 10.3002549,156.895437 L10.8720949,156.895437 L10.8720949,147.186879 C10.8720949,139.836115 15.7788103,136.124585 18.6777253,135.090433 L18.7127866,135.078642 L27.6549605,131.57686 L26.7036522,130.648822 Z" id="Path" fill="#4982AA"></path>
            <path d="M33.0897668,89.1589348 L31.8629328,89.1589348 C23.4898063,89.1589348 16.6779921,95.9713696 16.6779921,104.344496 L16.6779921,106.369672 L16.6779921,108.266083 L16.6779921,111.468759 C16.6779921,111.468759 20.1350949,111.125593 20.5598636,109.449168 L20.5576917,109.447617 C20.7041423,109.289065 20.826081,109.107553 20.9126482,108.906184 C22.8729763,108.8463 32.0338953,108.775557 37.2657806,102.457083 C37.889747,104.283061 40.0018004,107.741715 44.0658043,108.830476 C44.1483379,109.050773 44.274,109.24935 44.4251047,109.421553 L44.3915949,109.448547 C44.8166739,111.124972 48.2743972,111.468138 48.2743972,111.468138 L48.2743972,108.252431 L48.2743972,106.369051 L48.2743972,104.343875 C48.2753281,95.9716798 41.4622727,89.1589348 33.0897668,89.1589348 Z M44.5383557,108.358545 L44.6848063,108.252431 L44.7052846,108.252431 L44.4669921,108.428978 L44.5383557,108.358545 Z M44.4638893,108.403536 L44.4806443,108.35296 L44.5324605,108.252431 L44.5523182,108.252431 L44.491504,108.377783 L44.4638893,108.403536 Z M44.0617708,108.715364 L44.0561858,108.707296 L44.4306897,108.436115 L44.3419506,108.521751 L44.0682866,108.724051 L44.0617708,108.715364 Z M44.3698755,108.627555 L44.2525909,108.870192 C44.2516601,108.869881 44.2516601,108.869881 44.2507292,108.869881 L44.2345949,108.862435 C44.2318024,108.860883 44.2280791,108.859332 44.2265277,108.85747 L44.4182787,108.477692 L44.4229328,108.472727 L44.3698755,108.627555 Z" id="Shape" fill="#694B4B" fill-rule="nonzero"></path>
            <path d="M19.3550593,108.266083 L19.3550593,106.369672 L19.3550593,104.344496 C19.3550593,96.2143162 25.7777866,89.55733 33.8151937,89.1778617 C33.5741087,89.1663814 33.3330237,89.1589348 33.0897668,89.1589348 L31.8629328,89.1589348 C23.4898063,89.1589348 16.6779921,95.9713696 16.6779921,104.344496 L16.6779921,106.369672 L16.6779921,108.266083 L16.6779921,111.468759 C16.6779921,111.468759 18.2054842,111.316103 19.354749,110.722543 L19.354749,108.266083 L19.3550593,108.266083 Z" id="Path" fill="#563B3B"></path>
            <path d="M46.4515217,109.267346 C45.869753,109.085524 45.2386502,109.191638 44.748413,109.550939 C44.259417,109.912101 43.9699289,110.48332 43.9699289,111.091462 L43.9699289,116.540542 C43.9699289,117.147753 44.2584862,117.719593 44.748413,118.080134 C45.0810296,118.324943 45.4794249,118.451846 45.8818538,118.451846 C46.0723636,118.451846 46.2644249,118.423611 46.4502806,118.364968 C46.8167174,118.251407 47.1778794,118.08665 47.5207352,117.875662 C47.7230356,117.751862 47.9002036,117.590518 48.0435514,117.40187 C48.2542292,117.293273 48.443498,117.146202 48.6008083,116.969034 C49.3727767,116.095605 49.7994071,114.975816 49.7994071,113.815381 C49.7990968,111.718842 48.4540474,109.891002 46.4515217,109.267346 Z" id="Path" fill="#FBCB99"></path>
            <path d="M20.2595158,109.550939 C19.7698992,109.191638 19.1375553,109.085524 18.5573379,109.266725 C16.5554328,109.891002 15.2094526,111.719152 15.2094526,113.815381 C15.2094526,115.912542 16.5554328,117.741002 18.5573379,118.364968 C18.743504,118.423611 18.9352549,118.451846 19.1266957,118.451846 C19.5297451,118.451846 19.9265889,118.324632 20.2595158,118.080134 C20.7500632,117.719593 21.0389308,117.148063 21.0389308,116.540542 L21.0389308,111.091462 C21.0386206,110.48363 20.7500632,109.912101 20.2595158,109.550939 Z" id="Path" fill="#EDBA89"></path>
            <path d="M37.7240593,126.0378 C37.3483142,125.6785 36.8441146,125.489852 36.3200573,125.509089 L36.2542787,125.512812 C36.1382352,125.516846 36.0221917,125.531119 35.9080099,125.556251 C35.1692411,125.720698 34.4165099,125.803852 33.6724664,125.803852 L31.3351522,125.803852 C30.5684585,125.803852 29.7949387,125.716354 29.0328992,125.542289 C28.4647826,125.410731 27.8690514,125.546322 27.4154269,125.908725 C26.9596304,126.272059 26.693413,126.82249 26.693413,127.404879 L26.693413,132.966279 L26.6927925,132.984895 C26.6620751,133.537188 26.8724427,134.075518 27.2674249,134.460571 L31.1089605,138.202508 C31.4663992,138.551259 31.9451561,138.744872 32.4431502,138.744872 C32.4530791,138.744872 32.4636285,138.744872 32.4735573,138.744872 C32.9827213,138.735563 33.466753,138.526126 33.8198478,138.159379 L37.7771166,134.050696 C38.1209032,133.694808 38.3117233,133.219775 38.3117233,132.725194 L38.3117233,127.420083 C38.3132747,126.898198 38.1007352,126.398652 37.7240593,126.0378 Z" id="Path" fill="#FBCB99"></path>
            <path d="M32.8306858,137.628186 L28.9894605,133.886249 C28.5932372,133.500885 28.3841107,132.962866 28.4142075,132.410573 L28.4160692,132.391957 L28.4160692,126.829937 C28.4160692,126.340941 28.6044071,125.875526 28.9351621,125.523672 C28.3971423,125.429968 27.8442292,125.568042 27.4160474,125.908415 C26.960251,126.271749 26.6940336,126.82218 26.6940336,127.404569 L26.6940336,132.965968 L26.693413,132.984585 C26.6626957,133.536877 26.8730632,134.075208 27.2680455,134.460261 L31.109581,138.202198 C31.4670198,138.550949 31.9457767,138.744561 32.4437708,138.744561 C32.4536996,138.744561 32.464249,138.744561 32.4741779,138.744561 C32.9833419,138.735253 33.4673735,138.525816 33.8204684,138.159069 L33.8366028,138.141073 C33.461168,138.075915 33.109004,137.899057 32.8306858,137.628186 Z" id="Path" fill="#EDBA89"></path>
            <path d="M43.6816818,107.706034 C43.450836,107.620397 43.2320909,107.519557 43.0195514,107.413132 C39.8066364,105.914186 38.4736877,103.965028 37.9369091,102.80118 C37.9040198,102.757741 37.8726818,102.709338 37.8397925,102.648213 C37.4553597,101.942024 36.8571462,102.388822 36.8571462,102.388822 L36.8555949,102.387271 C33.8549091,104.688903 30.5777668,106.033953 27.852917,106.817091 C26.7923913,107.130781 25.777166,107.357283 24.8575059,107.52235 C23.0315277,107.857449 21.8571304,107.901508 21.8571304,107.901508 C20.857419,107.973802 20.0820375,108.805964 20.0820375,109.809089 L20.0820375,117.610996 C20.0820375,123.815289 25.1305494,128.8638 31.3357727,128.8638 L33.673087,128.8638 C39.8773794,128.8638 44.9258913,123.815289 44.9258913,117.610996 L44.9258913,109.497881 C44.9262016,108.698919 44.4303794,107.984662 43.6816818,107.706034 Z" id="Path" fill="#FBCB99"></path>
            <path d="M22.3768439,117.610686 L22.3768439,109.808779 C22.3768439,108.805654 23.1512945,107.973492 24.1503854,107.901198 C24.1503854,107.901198 25.3257134,107.857138 27.1510711,107.52235 C28.0713518,107.357283 29.0865771,107.130781 30.1483439,106.817091 C32.5582628,106.123623 35.4025692,104.988941 38.1053893,103.140933 C38.0420929,103.022407 37.9856225,102.908536 37.9362885,102.800559 C37.9033992,102.757121 37.8720613,102.708717 37.8391719,102.647593 C37.4547391,101.941403 36.8565257,102.388202 36.8565257,102.388202 L36.8549743,102.38665 C33.8542885,104.688283 30.5771462,106.033332 27.8522964,106.81647 C26.7917708,107.13016 25.7765455,107.356662 24.8568854,107.521729 C23.0309071,107.856828 21.8565099,107.900577 21.8565099,107.900577 C20.8567984,107.972872 20.081417,108.805034 20.081417,109.808158 L20.081417,117.610065 C20.081417,123.814358 25.1299289,128.86287 31.3351522,128.86287 L33.6280968,128.86287 C27.4247352,128.86349 22.3768439,123.814978 22.3768439,117.610686 Z" id="Path" fill="#EDBA89"></path>
            <path d="M111.774381,144.6423 C111.774381,144.387563 111.767245,144.139032 111.758557,143.889879 C111.756696,143.854818 111.757006,143.819136 111.754524,143.784385 C111.75018,143.658413 111.73963,143.535854 111.731563,143.411433 C111.722255,143.253502 111.714808,143.093399 111.701466,142.93764 C111.695881,142.873103 111.686263,142.809806 111.680368,142.744958 C111.659579,142.532419 111.63848,142.32019 111.610866,142.113856 C111.609314,142.09648 111.605901,142.078794 111.603419,142.061419 C111.035923,137.816524 109.10352,134.716549 106.930962,132.604496 C106.921034,132.593636 106.910484,132.584638 106.900555,132.574399 C106.786684,132.463941 106.672502,132.356585 106.55801,132.251711 C106.501229,132.198344 106.444138,132.149941 106.387047,132.099676 C106.320648,132.039792 106.253939,131.980219 106.187229,131.923439 C106.076771,131.827563 105.966312,131.736342 105.854923,131.646672 C105.843443,131.636743 105.831342,131.626814 105.818,131.616885 C104.425168,130.490271 103.030164,129.756777 101.936128,129.378239 C101.932095,129.377308 101.927441,129.374206 101.922166,129.373275 L101.893931,129.363036 C101.890208,129.362415 101.887105,129.360864 101.882761,129.359312 L87.5293617,123.604611 L83.9441146,127.325759 L80.2772648,130.897664 L76.6097945,127.325759 L73.0248577,123.604611 L58.6711482,129.359312 C58.6683557,129.360864 58.6640119,129.362105 58.6612194,129.363036 L58.6323636,129.373275 C58.6280198,129.374206 58.6227451,129.377308 58.6184012,129.378239 C57.5246759,129.756777 56.1296719,130.48996 54.7359091,131.616885 C54.7244289,131.626504 54.7113972,131.636433 54.7008478,131.646672 C54.5897688,131.736342 54.4783794,131.828184 54.3685415,131.923439 C54.3009012,131.980219 54.2338814,132.039482 54.1681028,132.099676 C54.110081,132.149941 54.0533004,132.198654 53.9971403,132.251711 C53.8817174,132.356275 53.7684664,132.464251 53.6542846,132.574399 C53.6434249,132.584328 53.6347372,132.593636 53.6235672,132.604496 C51.4519407,134.716239 49.5192273,137.816524 48.9511107,142.061419 C48.9486285,142.078794 48.945836,142.09648 48.9430435,142.113856 C48.9163597,142.32019 48.8952609,142.532419 48.8744723,142.744958 C48.8691976,142.809496 48.8595791,142.872792 48.8546146,142.93764 C48.8406522,143.093709 48.8332055,143.253502 48.823587,143.411433 C48.81583,143.535854 48.8049704,143.658413 48.8000059,143.784385 C48.7984545,143.819136 48.7990751,143.854818 48.7975237,143.889879 C48.7885257,144.138721 48.7813893,144.387563 48.7813893,144.6423 L48.7813893,146.923765 L48.7820099,146.923765 L48.7820099,153.894751 C48.8747826,154.983202 49.4382451,156.896057 52.2524545,156.896057 L55.6825632,156.896057 L104.874449,156.896057 L108.304557,156.896057 C111.117526,156.896057 111.680057,154.983202 111.775002,153.894751 L111.775002,146.923765 L111.775002,144.6423 L111.774381,144.6423 Z" id="SVGCleanerId_0" fill="#6598CB"></path>
            <path d="M111.774381,144.6423 C111.774381,144.387563 111.767245,144.139032 111.758557,143.889879 C111.756696,143.854818 111.757006,143.819136 111.754524,143.784385 C111.75018,143.658413 111.73963,143.535854 111.731563,143.411433 C111.722255,143.253502 111.714808,143.093399 111.701466,142.93764 C111.695881,142.873103 111.686263,142.809806 111.680368,142.744958 C111.659579,142.532419 111.63848,142.32019 111.610866,142.113856 C111.609314,142.09648 111.605901,142.078794 111.603419,142.061419 C111.035923,137.816524 109.10352,134.716549 106.930962,132.604496 C106.921034,132.593636 106.910484,132.584638 106.900555,132.574399 C106.786684,132.463941 106.672502,132.356585 106.55801,132.251711 C106.501229,132.198344 106.444138,132.149941 106.387047,132.099676 C106.320648,132.039792 106.253939,131.980219 106.187229,131.923439 C106.076771,131.827563 105.966312,131.736342 105.854923,131.646672 C105.843443,131.636743 105.831342,131.626814 105.818,131.616885 C104.425168,130.490271 103.030164,129.756777 101.936128,129.378239 C101.932095,129.377308 101.927441,129.374206 101.922166,129.373275 L101.893931,129.363036 C101.890208,129.362415 101.887105,129.360864 101.882761,129.359312 L87.5293617,123.604611 L83.9441146,127.325759 L80.2772648,130.897664 L76.6097945,127.325759 L73.0248577,123.604611 L58.6711482,129.359312 C58.6683557,129.360864 58.6640119,129.362105 58.6612194,129.363036 L58.6323636,129.373275 C58.6280198,129.374206 58.6227451,129.377308 58.6184012,129.378239 C57.5246759,129.756777 56.1296719,130.48996 54.7359091,131.616885 C54.7244289,131.626504 54.7113972,131.636433 54.7008478,131.646672 C54.5897688,131.736342 54.4783794,131.828184 54.3685415,131.923439 C54.3009012,131.980219 54.2338814,132.039482 54.1681028,132.099676 C54.110081,132.149941 54.0533004,132.198654 53.9971403,132.251711 C53.8817174,132.356275 53.7684664,132.464251 53.6542846,132.574399 C53.6434249,132.584328 53.6347372,132.593636 53.6235672,132.604496 C51.4519407,134.716239 49.5192273,137.816524 48.9511107,142.061419 C48.9486285,142.078794 48.945836,142.09648 48.9430435,142.113856 C48.9163597,142.32019 48.8952609,142.532419 48.8744723,142.744958 C48.8691976,142.809496 48.8595791,142.872792 48.8546146,142.93764 C48.8406522,143.093709 48.8332055,143.253502 48.823587,143.411433 C48.81583,143.535854 48.8049704,143.658413 48.8000059,143.784385 C48.7984545,143.819136 48.7990751,143.854818 48.7975237,143.889879 C48.7885257,144.138721 48.7813893,144.387563 48.7813893,144.6423 L48.7813893,146.923765 L48.7820099,146.923765 L48.7820099,153.894751 C48.8747826,154.983202 49.4382451,156.896057 52.2524545,156.896057 L55.6825632,156.896057 L104.874449,156.896057 L108.304557,156.896057 C111.117526,156.896057 111.680057,154.983202 111.775002,153.894751 L111.775002,146.923765 L111.775002,144.6423 L111.774381,144.6423 Z" id="SVGCleanerId_0_1_" fill="#6598CB"></path>
            <path d="M72.9562866,123.766265 L58.6767332,129.358071 L58.6323636,129.373585 C54.9745119,130.678609 48.7816996,135.363787 48.7816996,144.64168 L48.7816996,153.89382 C48.8744723,154.982271 49.4379348,156.895126 52.2521443,156.895126 L52.9741581,156.895126 L52.9741581,144.64199 C52.9741581,135.363476 59.1675909,130.678609 62.825753,129.373895 L62.8701225,129.358381 L74.156747,124.9388 L72.9562866,123.766265 Z" id="Path" fill="#4982AA"></path>
            <path d="M81.0169644,71.3980771 L79.4689941,71.3980771 C68.9003498,71.3980771 60.302583,79.9967747 60.302583,90.565419 L60.302583,93.121168 L60.302583,95.5146423 L60.302583,99.5572372 C60.302583,99.5572372 64.6663142,99.1237806 65.2024723,97.0076937 L65.1996798,97.005832 C65.3846047,96.8053933 65.5381917,96.5760988 65.6480296,96.3219822 C68.1231067,96.246585 79.6855672,96.156915 86.2891858,88.1821838 C87.0769783,90.4872292 89.7428755,94.8525119 94.8723696,96.2267273 C94.9766225,96.5050455 95.1345534,96.755749 95.3259941,96.973253 L95.2837964,97.008004 C95.8202648,99.1240909 100.184927,99.5575474 100.184927,99.5575474 L100.184927,95.4981976 L100.184927,93.1217885 L100.184927,90.5660395 C100.184306,79.9964644 91.5852984,71.3980771 81.0169644,71.3980771 Z M95.4674802,95.6316166 L95.6524051,95.4975771 L95.6778478,95.4975771 L95.3778103,95.7200455 L95.4674802,95.6316166 Z M95.3737767,95.6887075 L95.3945652,95.6244802 L95.4600336,95.4978874 L95.4854763,95.4978874 L95.4091482,95.6564387 L95.3737767,95.6887075 Z M94.8658538,96.0824486 L94.8584071,96.0722095 L95.3306482,95.7302846 L95.2192589,95.8385711 L94.8739209,96.0939289 L94.8658538,96.0824486 Z M95.255251,95.9713696 L95.107249,96.2776126 C95.1056976,96.2769921 95.1056976,96.2769921 95.1047668,96.2769921 L95.0839783,96.2676838 C95.0802549,96.2658221 95.0768419,96.2630296 95.0737391,96.261168 L95.3160652,95.7821008 L95.3222708,95.7758953 L95.255251,95.9713696 Z" id="Shape" fill="#694B4B" fill-rule="nonzero"></path>
            <path d="M63.6811858,95.514332 L63.6811858,93.1208577 L63.6811858,90.5651087 C63.6811858,80.3030178 71.7877846,71.9007253 81.9332115,71.4210375 C81.62883,71.4064545 81.3241383,71.3977668 81.0172747,71.3977668 L79.4693043,71.3977668 C68.9006601,71.3977668 60.3028933,79.9964644 60.3028933,90.5651087 L60.3028933,93.1208577 L60.3028933,95.514332 L60.3028933,99.5569269 C60.3028933,99.5569269 62.2312628,99.3648656 63.681496,98.6146166 L63.681496,95.514332 L63.6811858,95.514332 Z" id="Path" fill="#563B3B"></path>
            <path d="M97.8820534,96.7783992 C97.148249,96.549415 96.3520791,96.6825237 95.7330771,97.1367688 C95.1159368,97.5922549 94.7501206,98.3142688 94.7501206,99.0818933 L94.7501206,105.959486 C94.7501206,106.72618 95.1143854,107.447263 95.7330771,107.902439 C96.1525711,108.211164 96.6549091,108.371577 97.1634526,108.371577 C97.4042273,108.371577 97.6468636,108.335895 97.8808123,108.262049 C98.3434348,108.118702 98.7992312,107.910816 99.2320672,107.644289 C99.4868043,107.487909 99.7108241,107.284678 99.8917154,107.046385 C100.157933,106.908933 100.397156,106.723387 100.595113,106.499368 C101.570002,105.396955 102.108022,103.983955 102.108022,102.518828 C102.108022,99.8730988 100.409877,97.5658814 97.8820534,96.7783992 Z" id="Path" fill="#FBCB99"></path>
            <path d="M64.8226937,97.1364585 C64.2046225,96.682834 63.4065909,96.549415 62.6743379,96.7777787 C60.1477549,97.5658814 58.4483696,99.8730988 58.4483696,102.518828 C58.4483696,105.166419 60.1477549,107.473947 62.6743379,108.261429 C62.9089071,108.335275 63.1515435,108.370957 63.3929387,108.370957 C63.9014822,108.370957 64.4028893,108.210543 64.8223834,107.901818 C65.4410751,107.446642 65.8062708,106.725559 65.8062708,105.958866 L65.8062708,99.0809625 C65.806581,98.3139585 65.4413854,97.5922549 64.8226937,97.1364585 Z" id="Path" fill="#EDBA89"></path>
            <path d="M86.8669209,117.946405 C86.3928182,117.492781 85.7564407,117.254798 85.0946206,117.279 L85.0117767,117.283344 C84.8653261,117.288308 84.7185652,117.306615 84.5752174,117.338573 C83.6425257,117.545838 82.6927688,117.650711 81.7538715,117.650711 L78.8037609,117.650711 C77.8356976,117.650711 76.8595672,117.540253 75.8977095,117.320577 C75.1803498,117.154579 74.4288597,117.325542 73.8554684,117.7832 C73.2799051,118.241478 72.9448063,118.936808 72.9448063,119.671233 L72.9448063,126.691243 L72.9438755,126.714824 C72.9054012,127.411706 73.1703775,128.090901 73.6689921,128.577415 L78.5183063,133.300757 C78.9694486,133.740109 79.573247,133.983986 80.2021779,133.983986 C80.2145889,133.983986 80.2276206,133.983986 80.2403419,133.983986 C80.8826146,133.972816 81.4938597,133.70815 81.9397273,133.245528 L86.9345613,128.059563 C87.3686383,127.610593 87.6100336,127.010518 87.6100336,126.386862 L87.6100336,119.69047 C87.6106542,119.031753 87.3425751,118.402202 86.8669209,117.946405 Z" id="Path" fill="#FBCB99"></path>
            <path d="M80.6908636,132.575951 L75.8418597,127.852919 C75.3416937,127.366715 75.0776482,126.687209 75.1161225,125.990328 L75.118915,125.966747 L75.118915,118.947047 C75.118915,118.329287 75.356587,117.742553 75.7739091,117.297927 C75.0944032,117.180022 74.3972115,117.353777 73.8560889,117.78351 C73.2805257,118.241789 72.9454269,118.936808 72.9454269,119.671543 L72.9454269,126.691553 L72.944496,126.715134 C72.9060217,127.412016 73.170998,128.091211 73.6696126,128.577725 L78.5189269,133.301067 C78.9700692,133.740419 79.5738676,133.984296 80.2027984,133.984296 C80.2152095,133.984296 80.2282411,133.984296 80.2409625,133.984296 C80.8832352,133.973126 81.4944802,133.70846 81.9403478,133.245838 L81.9611364,133.223188 C81.4857925,133.140654 81.041166,132.917565 80.6908636,132.575951 Z" id="Path" fill="#EDBA89"></path>
            <path d="M94.3867866,94.8081423 C94.0948162,94.6995455 93.8192905,94.5735731 93.5505909,94.4379822 C89.4949644,92.545915 87.8126443,90.0857312 87.135,88.6162609 C87.0940435,88.5613419 87.0543281,88.5005277 87.012751,88.4232688 C86.527168,87.5324644 85.7722648,88.0965474 85.7722648,88.0965474 L85.7700929,88.0943755 C81.9822352,90.999496 77.846247,92.6982609 74.4065198,93.6858715 C73.0682964,94.0817846 71.7859229,94.3678597 70.626419,94.5754348 C68.3213735,94.9986522 66.8391818,95.0538814 66.8391818,95.0538814 C65.5772866,95.1457233 64.5989842,96.1960099 64.5989842,97.462249 L64.5989842,107.30919 C64.5989842,115.140883 70.9708261,121.512415 78.8034506,121.512415 L81.7535613,121.512415 C89.5843241,121.512415 95.9567866,115.140883 95.9567866,107.30919 L95.9567866,97.0688182 C95.9570968,96.0616601 95.3309585,95.159996 94.3867866,94.8081423 Z" id="Path" fill="#FBCB99"></path>
            <path d="M67.495417,107.30981 L67.495417,97.4628696 C67.495417,96.1966304 68.4727885,95.1463439 69.7343735,95.054502 C69.7343735,95.054502 71.2171858,94.9998933 73.5219209,94.5760553 C74.6832866,94.3684802 75.964419,94.0824051 77.3048142,93.6864921 C80.3467668,92.8115119 83.9369783,91.3792747 87.3484704,89.0466146 C87.2687292,88.8970613 87.1976759,88.7534032 87.135,88.6168814 C87.0940435,88.5619625 87.0543281,88.5011482 87.012751,88.4238893 C86.527168,87.533085 85.7722648,88.097168 85.7722648,88.097168 L85.7700929,88.094996 C81.9822352,91.0001166 77.846247,92.6988814 74.4065198,93.6864921 C73.0682964,94.0824051 71.7859229,94.3684802 70.626419,94.5760553 C68.3213735,94.9992727 66.8391818,95.054502 66.8391818,95.054502 C65.5772866,95.1463439 64.5989842,96.1966304 64.5989842,97.4628696 L64.5989842,107.30981 C64.5989842,115.141504 70.9708261,121.513036 78.8034506,121.513036 L81.6977115,121.513036 C73.8672589,121.513036 67.495417,115.141504 67.495417,107.30981 Z" id="Path" fill="#EDBA89"></path>
        </g>
    </g>
</svg>