<?xml version="1.0" encoding="UTF-8"?>
<svg width="216px" height="201px" viewBox="0 0 216 201" version="1.1" xmlns="http://www.w3.org/2000/svg" xmlns:xlink="http://www.w3.org/1999/xlink">
    <!-- Generator: Sketch 52.5 (67469) - http://www.bohemiancoding.com/sketch -->
    <title>whatwedo-02</title>
    <desc>Created with Sketch.</desc>
    <g id="whatwedo-02" stroke="none" stroke-width="1" fill="none" fill-rule="evenodd">
        <g id="1534956" transform="translate(52.000000, 27.000000)">
            <g id="Group" transform="translate(0.883117, 0.883117)" fill="#A7C7D3" fill-rule="nonzero">
                <path d="M67.6236172,134.203715 C66.4920146,134.203715 65.573883,133.286619 65.573883,132.15398 C65.573883,131.022378 66.4920146,130.104246 67.6236172,130.104246 L67.6547053,130.104246 C68.7728365,130.104246 69.6857869,131.002688 69.7023671,132.123928 C69.7189474,133.255531 68.8132507,134.187134 67.6816481,134.203715 C67.6712855,134.203715 67.63398,134.203715 67.6236172,134.203715 Z M59.4454051,133.760193 C59.3656126,133.760193 59.2847838,133.756048 59.2039551,133.746721 L59.1759759,133.743612 C58.0516272,133.61097 57.2474847,132.592321 57.3801268,131.467972 C57.5127689,130.343623 58.5324547,129.539481 59.654731,129.672123 L59.6827099,129.675232 C60.8070589,129.806837 61.6112014,130.826523 61.4785593,131.949836 C61.3562798,132.993356 60.4702722,133.760193 59.4454051,133.760193 Z M75.8049381,133.61926 C74.8101227,133.61926 73.942768,132.890765 73.7883644,131.875225 C73.6184165,130.756057 74.3966524,129.709428 75.5158198,129.540517 C75.528255,129.538444 75.5686695,129.532227 75.5811047,129.531191 C76.7023445,129.383005 77.7334293,130.171603 77.8816154,131.293879 C78.0298015,132.416156 77.2412028,133.446204 76.1189268,133.595426 L76.1137453,133.595426 C76.010119,133.61097 75.9075286,133.61926 75.8049381,133.61926 Z M51.3594206,132.279368 C51.1905094,132.279368 51.0184891,132.258643 50.8475053,132.214084 L50.8412878,132.213047 C49.748027,131.935328 49.0775628,130.824451 49.3501008,129.730154 C49.6216024,128.636893 50.7190083,127.966429 51.8143415,128.230677 C51.8247043,128.233785 51.8599372,128.242075 51.8692638,128.245184 C52.9656332,128.527049 53.6257346,129.644144 53.342834,130.740513 C53.1055292,131.664862 52.2723712,132.279368 51.3594206,132.279368 Z M83.8826325,132.003722 C82.9696819,132.003722 82.1365242,131.389216 81.899219,130.464866 C81.6163185,129.368497 82.2764199,128.251402 83.3717534,127.968501 C84.4650139,127.672129 85.590399,128.31565 85.8878072,129.406839 C86.1862519,130.499063 85.5416945,131.626521 84.4494701,131.923929 L84.3945478,131.938437 C84.223564,131.982996 84.0515439,132.003722 83.8826325,132.003722 Z M43.5262853,129.783003 C43.2786176,129.783003 43.0268049,129.737408 42.7812099,129.641035 L42.762557,129.633781 C41.706602,129.225492 41.1822512,128.037931 41.5905402,126.981976 C41.9988289,125.927057 43.1853535,125.40167 44.2413088,125.810995 C44.2433814,125.812032 44.2713604,125.822394 44.2734331,125.823431 C45.3273157,126.234828 45.8485576,127.423425 45.4361238,128.478344 C45.1200624,129.287668 44.3459716,129.783003 43.5262853,129.783003 Z M91.6784625,129.390259 C90.8670661,129.390259 90.0991927,128.905286 89.7769141,128.106325 C89.3530811,127.056587 89.8618878,125.862809 90.9116253,125.438976 C91.9603269,125.013071 93.1665403,125.513587 93.5924458,126.562288 C94.0183512,127.610989 93.5230159,128.802696 92.475351,129.228601 L92.4442629,129.241036 C92.1934867,129.34259 91.9333838,129.390259 91.6784625,129.390259 Z M36.0734595,126.315657 C35.7397816,126.315657 35.4009226,126.233792 35.0879703,126.061772 L35.0817529,126.058663 C34.0910822,125.517732 33.7180264,124.276285 34.2537762,123.282506 C34.7895257,122.289763 36.0206098,121.913599 37.0164615,122.444167 L37.0630937,122.470073 C38.0548003,123.01515 38.4174933,124.261777 37.871381,125.253484 C37.4983252,125.932238 36.7967731,126.315657 36.0734595,126.315657 Z M99.0825837,125.816177 C98.3696327,125.816177 97.6763704,125.443121 97.2991698,124.77991 C96.7395859,123.795458 97.0836265,122.544685 98.067043,121.984065 C98.0680792,121.984065 98.0929495,121.969557 98.0939857,121.969557 C99.0784387,121.411009 100.329212,121.757122 100.887759,122.741575 C101.446307,123.727064 101.100194,124.977837 100.114705,125.535349 L100.095016,125.547784 C99.7748095,125.72913 99.4255876,125.816177 99.0825837,125.816177 Z M8.3077453,96.9209325 C7.54401725,96.9209325 6.80826818,96.490882 6.4538653,95.7582421 L6.42381365,95.6950296 C5.95127631,94.6670537 6.40308833,93.4494412 7.43210051,92.97794 C8.46007648,92.5054027 9.67768922,92.9561785 10.1491901,93.9851907 C10.642453,95.0048765 10.2124025,96.2235255 9.19375289,96.7167882 C8.90774344,96.8546115 8.60618994,96.9209325 8.3077453,96.9209325 Z M126.379905,95.9686039 C126.097005,95.9686039 125.810995,95.9095368 125.537421,95.7862211 C124.5053,95.3199014 124.046234,94.1064338 124.512554,93.0743127 C124.978874,92.0432281 126.197523,91.571727 127.229644,92.0380466 C128.261765,92.5043665 128.726012,93.7053987 128.259692,94.73752 L128.248293,94.7623904 C127.906326,95.5199007 127.160214,95.9686039 126.379905,95.9686039 Z M5.26526802,89.2712163 C4.41242094,89.2712163 3.61656858,88.7344303 3.32641407,87.880547 L3.30050748,87.7997184 C2.96786613,86.7178566 3.57511793,85.5707099 4.65698001,85.2380686 C5.7326241,84.9074996 6.87251681,85.5054251 7.21241209,86.5748517 C7.56577877,87.6442783 6.99065101,88.8017878 5.92329706,89.1624081 C5.70568104,89.2359831 5.48392023,89.2712163 5.26526802,89.2712163 Z M129.296995,88.2836545 C129.096995,88.2836545 128.893887,88.2546393 128.692851,88.192463 C127.610989,87.8598217 127.003738,86.7126753 127.337415,85.6308132 C127.670057,84.5489517 128.819276,83.9282282 129.90321,84.2619058 C130.985072,84.5945471 131.595433,85.7282224 131.262791,86.8111204 L131.254501,86.8370272 C130.984036,87.7178533 130.172639,88.2836545 129.296995,88.2836545 Z M3.22175126,81.3116561 C2.24973378,81.3116561 1.38859658,80.6173579 1.20724995,79.6287599 C0.991706597,78.5292817 1.69947641,77.4577826 2.79999115,77.2277314 C3.90775955,76.9966443 4.99376643,77.7064865 5.22589004,78.8152911 C5.2300351,78.833944 5.23832523,78.8805759 5.24143383,78.8992286 C5.44143339,80.0132147 4.69946685,81.0784963 3.58548072,81.2784956 C3.46320146,81.3002574 3.34195812,81.3116561 3.22175126,81.3116561 Z M131.216159,80.290934 C131.115642,80.290934 131.013051,80.2836801 130.910461,80.2681363 C129.791293,80.1012973 129.019275,79.0577775 129.186114,77.9386101 C129.189223,77.918921 129.196477,77.8722891 129.200622,77.8526 C129.399585,76.7386138 130.464866,75.9966473 131.578853,76.1966466 C132.691802,76.3956097 133.432733,77.4577826 133.236878,78.5696961 C133.074184,79.5728017 132.205794,80.290934 131.216159,80.290934 Z M2.19170288,73.1417344 C1.11502233,73.1417344 0.21347095,72.3137577 0.149222319,71.2256782 L0.148186119,71.1987354 C0.0818650887,70.068169 0.944038488,69.0982239 2.07356841,69.0319029 C3.2041348,68.9655818 4.17407987,69.8277552 4.2404009,70.9572852 C4.30672193,72.0878516 3.44558473,73.071268 2.31501835,73.1375891 C2.2735677,73.1396617 2.23211706,73.1417344 2.19170288,73.1417344 Z M132.101131,72.1189397 C132.080405,72.1189397 132.05968,72.1189397 132.038954,72.1179032 C130.908388,72.0847427 130.0172,71.139668 130.05036,70.0091019 C130.051396,69.9883766 130.053469,69.9417447 130.054505,69.9210191 C130.120826,68.7914891 131.086626,67.9303519 132.221337,67.9956368 C133.348795,68.0619578 134.209932,69.0277578 134.147756,70.1552153 C134.10216,71.2536574 133.196464,72.1189397 132.101131,72.1189397 Z M2.20517427,64.931398 C2.16475983,64.931398 2.12330918,64.9303615 2.08185854,64.9272529 C0.952328617,64.8598957 0.0911914173,63.8940954 0.157512448,62.7645655 C0.158548648,62.7448764 0.161657512,62.6972082 0.163730177,62.6775191 C0.263211723,61.5490254 1.25906338,60.7158674 2.38548471,60.815349 C3.5046521,60.9148305 4.33470119,61.8961743 4.24869103,63.0143055 C4.17718874,64.0961674 3.27667329,64.931398 2.20517427,64.931398 Z M131.943618,63.9003131 C130.875228,63.9003131 129.976785,63.0733726 129.901138,61.9956559 C129.809946,60.8733799 130.642068,59.8827095 131.76538,59.7842642 C132.892838,59.6868553 133.885581,60.5158682 133.985062,61.6433257 C133.987135,61.6630145 133.990244,61.7106829 133.99128,61.7303718 C134.058637,62.859902 133.195428,63.829847 132.065898,63.8961681 C132.024447,63.8992769 131.984032,63.9003131 131.943618,63.9003131 Z M3.25491177,56.7790924 C3.1347049,56.7790924 3.01242563,56.7687299 2.8901461,56.7459319 C1.77719644,56.5459326 1.03522991,55.4847961 1.2352292,54.37081 C1.23833806,54.3511209 1.24766439,54.3055252 1.25180946,54.2858361 C1.48289686,53.1780677 2.56993994,52.4671893 3.67667214,52.6993129 C4.77822308,52.9293638 5.48599289,54.0018993 5.26837688,55.102414 C5.08495785,56.0868667 4.22382065,56.7790924 3.25491177,56.7790924 Z M130.756057,55.7676967 C129.80891,55.7676967 128.957099,55.1065588 128.752955,54.1428315 C128.752955,54.1407591 128.746737,54.1117434 128.745701,54.109671 C128.514614,53.0019026 129.225492,51.9158957 130.333261,51.6848083 C131.442065,51.4526847 132.527036,52.1635631 132.759159,53.2713317 L132.763305,53.2920571 C132.998537,54.3998255 132.290767,55.4879047 131.184035,55.722101 C131.039994,55.7521527 130.896989,55.7676967 130.756057,55.7676967 Z M5.32951665,48.8298951 C5.11086443,48.8298951 4.89013982,48.7946622 4.6714876,48.7210872 C3.59998832,48.3573577 3.02486083,47.1946673 3.38755383,46.1221318 L3.3885903,46.1179868 C3.72641292,45.0381976 4.87252336,44.4475258 5.95231251,44.7853484 C7.03313812,45.1231713 7.6320998,46.2848255 7.29324098,47.3646149 C7.28909565,47.3801587 7.27562426,47.4216094 7.270443,47.4361172 C6.98132469,48.2910367 6.18339992,48.8298951 5.32951665,48.8298951 Z M128.560209,47.8464786 C127.73016,47.8464786 126.949852,47.3397446 126.641044,46.5159129 C126.630682,46.4868975 126.620319,46.457882 126.609957,46.4278304 C126.247263,45.3552949 126.821355,44.191568 127.89389,43.828875 C128.964353,43.4672179 130.123935,44.0382006 130.489737,45.1055548 C130.866938,46.157365 130.330152,47.3221278 129.280414,47.7159092 C129.043109,47.805028 128.799587,47.8464786 128.560209,47.8464786 Z M8.39479165,41.2040128 C8.09012955,41.2040128 7.78235858,41.1366555 7.49116761,40.9936509 C6.47873569,40.495207 6.06008418,39.2724127 6.55231065,38.2579084 C7.02795686,37.2454765 8.22898908,36.7998819 9.25178379,37.2620568 C10.2828686,37.7273402 10.7419346,38.941844 10.2756147,39.9729289 C10.2662884,39.9936539 10.2455631,40.0382134 10.2352003,40.0589388 C9.87872472,40.7832888 9.15126604,41.2040128 8.39479165,41.2040128 Z M125.395453,40.2703371 C124.649341,40.2703371 123.9281,39.8610119 123.563334,39.1542785 L123.533282,39.0941752 C123.033802,38.0786342 123.452454,36.8496227 124.467994,36.3501426 C125.483535,35.8506622 126.712547,36.2693137 127.212027,37.2848545 L127.2141,37.2889995 C127.733269,38.295214 127.334307,39.5242255 126.329128,40.0433947 C126.029648,40.1967624 125.710478,40.2703371 125.395453,40.2703371 Z M97.0266318,11.4196525 C96.7095342,11.4196525 96.3882919,11.3460775 96.0877746,11.1916739 L96.0629042,11.1782025 C95.0566897,10.6590333 94.6629089,9.42173143 95.1831143,8.41655318 C95.7022836,7.41033899 96.938549,7.01655787 97.9437272,7.53676332 L97.9675614,7.54816231 C98.9737759,8.06733156 99.3685932,9.30359696 98.8494239,10.3098114 C98.4856945,11.0155088 97.7685983,11.4196525 97.0266318,11.4196525 Z M41.3470176,9.45178308 C40.5490926,9.45178308 39.7884734,8.98960853 39.455832,8.21344528 C39.0112739,7.17717918 39.4744847,5.98236416 40.5086784,5.53158834 C40.5159321,5.52847974 40.5480564,5.51500808 40.5553103,5.51189948 C41.5967577,5.07252265 42.800899,5.56060405 43.2402758,6.60412382 C43.6806889,7.64660766 43.1915713,8.84867634 42.1490874,9.28908937 C41.8869122,9.39893371 41.6154106,9.45178308 41.3470176,9.45178308 Z M89.5095573,8.10049208 C89.2712163,8.10049208 89.0276937,8.05800524 88.7903888,7.96888622 C87.7251072,7.58650409 87.171741,6.41241466 87.5551596,5.3471331 C87.9385779,4.28185155 89.1116311,3.72848558 90.1779492,4.11190391 C90.1862393,4.11501277 90.2214722,4.12744796 90.2297623,4.13055656 C91.2898626,4.52848275 91.8266483,5.70982637 91.4287222,6.7699264 C91.1209512,7.59272182 90.3396064,8.10049208 89.5095573,8.10049208 Z M49.0640914,6.68909778 C48.1739387,6.68909778 47.3542522,6.10464369 47.096222,5.20620091 C46.7822333,4.11812164 47.4102107,2.98237398 48.4982899,2.66942149 L48.5086527,2.66631262 C49.5936231,2.34817886 50.7345523,2.96682993 51.0547585,4.0518006 C51.3749646,5.13677102 50.7594227,6.27459133 49.6754882,6.59583369 C49.6692708,6.59790636 49.6381827,6.60723269 49.6330014,6.60826889 C49.4433646,6.66319119 49.2526917,6.68909778 49.0640914,6.68909778 Z M81.6339349,5.75749448 C81.4774587,5.75749448 81.3199462,5.73987802 81.1624338,5.70257244 C80.0577742,5.45179591 79.3603672,4.35231764 79.6121797,3.24765811 C79.8629562,2.14403451 80.9572532,1.45180875 82.0588042,1.70258528 L82.101291,1.71191161 C83.2028419,1.97097827 83.8857414,3.0746016 83.6266747,4.17615254 C83.4049139,5.12122723 82.5624294,5.75749448 81.6339349,5.75749448 Z M57.1148427,4.90464741 C56.1200272,4.90464741 55.2381647,4.18444267 55.079616,3.17408315 C54.9055233,2.06009702 55.6505987,1.01554078 56.7635484,0.835230614 C56.7708023,0.834194149 56.8039628,0.829012884 56.8112168,0.827976685 C57.9272753,0.659065243 58.9749404,1.42797456 59.144888,2.54817842 C59.3148357,3.66734581 58.5438537,4.71190205 57.4257225,4.88184969 C57.3210597,4.89739375 57.2174331,4.90464741 57.1148427,4.90464741 Z M73.5210076,4.43418273 C73.4609041,4.43418273 73.4008008,4.43211007 73.3386248,4.4269288 L73.2826666,4.42071107 C72.1562453,4.30464927 71.3375949,3.29843508 71.4536567,2.17201376 C71.5697185,1.04559243 72.5769692,0.226942343 73.7023543,0.343004147 L73.7085717,0.344040347 C74.8298118,0.455957086 75.6577882,1.45388141 75.5531254,2.57615767 C75.4526077,3.63729416 74.5666001,4.43418273 73.5210076,4.43418273 Z M65.3023811,4.15024569 C64.1977216,4.15024569 63.2744084,3.27252849 63.2412479,2.16165123 C63.2080874,1.03004838 64.0847684,0.0860101531 65.2163712,0.0528496377 L65.243314,0.0518131726 C65.2640393,0.0507769728 65.2847646,0.0507769728 65.3044538,0.0507769728 C66.4091133,0.0507769728 67.3199913,0.92953063 67.3521156,2.0404079 C67.3852761,3.17201048 66.4951235,4.11604897 65.3635209,4.14920949 C65.3438317,4.15024569 65.3231064,4.15024569 65.3023811,4.15024569 Z" id="Shape"></path>
            </g>
            <path d="M42.1692487,52.1405172 C44.0720686,48.8979518 46.4822382,46.1368426 49.241016,43.9007694 C58.818405,36.124838 72.5915435,34.6742441 83.8580226,41.2859647 C86.1488769,42.6296838 88.2011003,44.2276201 89.9960179,46.023742 C99.5713319,55.5926821 101.883974,70.7585497 94.715717,82.9765363 C92.2920597,87.1073051 89.048758,90.4546701 85.3115945,92.9314714 C80.7049855,95.9934908 75.3492836,97.7335811 69.8628538,97.990911 C64.1595814,98.264843 58.3162431,96.9387635 53.0259056,93.8342017 C47.6235152,90.6642697 43.560569,86.0873237 41.0269339,80.8411122 C39.2019282,77.072473 38.1706289,72.9583061 37.9994374,68.7746185 C37.7691068,63.1382615 39.1002509,57.3701267 42.1692487,52.1405172 Z" id="Path" fill="#83D9FF"></path>
            <path d="M89.9230775,46.9041633 C88.1124252,45.1079226 86.0444533,43.5098808 83.7348518,42.1660728 C77.4221502,38.4916142 70.3301673,37.3107234 63.6168419,38.31832 C67.3647143,38.8828231 71.0707461,40.1456912 74.5393324,42.1660728 C76.8499798,43.5109184 78.917952,45.1079226 80.728604,46.9041633 C90.3822782,56.473736 92.713846,71.6406063 85.4869272,83.8594006 C83.0434358,87.9904426 79.7735923,91.3380289 76.0058458,93.8149938 C72.2496052,96.2919588 67.9996455,97.902453 63.5844156,98.564499 C65.5959028,98.8664665 67.618896,98.9702354 69.625153,98.874768 C75.1564812,98.617421 80.5560116,96.8772157 85.2003189,93.8149938 C88.9680657,91.3380289 92.237909,87.9904426 94.6814004,83.8594006 C101.908319,71.6406063 99.5767514,56.473736 89.9230775,46.9041633 Z" id="Path" fill="#5FC9ED"></path>
            <path d="M89.7983518,46.8051948 C99.5860185,56.3532184 101.949948,71.4859352 94.6227201,83.6772148 C92.1453131,87.7989543 88.8300844,91.1390024 85.0100414,93.6103896 C82.3650701,90.7000128 80.6056444,86.1009757 81.4678584,82.2391098 C82.6620196,76.8863356 88.038926,76.7393156 88.8767476,71.7085362 C89.8481969,65.8857119 83.0830515,63.4474559 83.3587903,57.1504402 C83.5327178,53.1664025 86.4619122,49.0850416 89.7983518,46.8051948 Z" id="Path" fill="#3DC5A1"></path>
            <path d="M89.9110865,46.8051948 C88.0016562,48.1262755 86.2294368,50.0519894 85.0406253,52.2137583 C90.8862259,61.4975614 91.4549701,73.5922856 85.4690166,83.6774343 C84.4834027,85.3360329 83.3616254,86.8672857 82.1298701,88.2670517 C82.7845022,90.2683444 83.8738096,92.1516096 85.1820259,93.6103896 C85.6533609,93.3008259 86.1173638,92.9788382 86.5729876,92.6423561 C87.0286115,92.3069092 87.4748084,91.9569675 87.9126263,91.5946022 C90.5405804,89.4193741 92.8406949,86.767894 94.675759,83.6774343 C101.912321,71.4853892 99.5776423,56.3530072 89.9110865,46.8051948 Z" id="Path" fill="#38B28F"></path>
            <path d="M40.6233766,81.0732752 C43.8665173,77.5285382 48.4772218,75.5734567 48.8871783,75.4045622 C49.1437921,75.3001546 54.5222522,73.1444469 55.8334867,74.8129196 C57.0852618,76.4066693 53.2788223,79.7845593 54.520166,81.9853055 C55.943017,84.5136047 61.7773318,81.5379911 65.9979001,84.838087 C68.6798279,86.9364729 69.1888831,90.3778261 69.5039133,92.4905426 C69.6207456,93.2776932 69.960811,95.5736347 69.6155297,97.9913847 C63.8813569,98.2616159 58.0063594,96.9534515 52.6873588,93.8908315 C47.2556982,90.7637244 43.170739,86.2486117 40.6233766,81.0732752 Z" id="Path" fill="#3DC5A1"></path>
            <path d="M42.1493484,52.3392504 C44.0431422,49.118857 46.441879,46.3766276 49.1875705,44.1558442 C51.0906576,45.3965974 53.0598316,46.8805547 57.2356782,47.4947481 C63.9248806,48.4819921 67.3118184,45.921135 69.7921307,48.3346268 C72.1351068,50.6172418 72.080379,55.800787 69.8210436,57.5969938 C66.5260073,60.2145296 59.0871353,55.2092653 58.0741518,56.8086415 C57.3038298,58.0277535 61.7522838,60.7400977 61.1285914,63.42874 C60.4336496,66.4213873 53.9427073,67.245808 47.2256245,68.1021749 C43.1695599,68.6164074 40.3051193,68.9812134 37.9993169,68.8596115 C37.7700789,63.2617947 39.0949086,57.5331011 42.1493484,52.3392504 Z" id="Path" fill="#3DC5A1"></path>
            <path d="M40.6233766,20.3116883 C40.6233766,25.9588046 38.3194951,31.0669586 34.5967974,34.747957 L34.5967974,34.7510845 C30.9293512,38.3799588 25.8816612,40.6233766 20.3116883,40.6233766 C14.7636074,40.6233766 9.73259711,38.3966385 6.06723599,34.7896562 C2.32264635,31.1055306 0,25.9806966 0,20.3116883 C0,9.0945991 9.0945991,0 20.3116883,0 C31.5287775,0 40.6233766,9.0945991 40.6233766,20.3116883 Z" id="Path" fill="#4982AA"></path>
            <path d="M20.5776598,0 C19.2782479,0 18.009701,0.129267571 16.7792208,0.369037932 C26.0325145,2.16835925 33.0264985,10.4112519 33.0264985,20.3116883 C33.0264985,25.9588046 30.7527851,31.0669586 27.0788344,34.747957 L27.0788344,34.7510845 C24.3143691,37.5230398 20.7546185,39.4818605 16.7792208,40.2553811 C18.009701,40.4941091 19.2782479,40.6233766 20.5776598,40.6233766 C26.0746967,40.6233766 31.0562897,38.3799588 34.6757125,34.7510845 L34.6757125,34.747957 C38.3496632,31.0669586 40.6233766,25.9588046 40.6233766,20.3116883 C40.6233766,9.0945991 31.6478668,0 20.5776598,0 Z" id="Path" fill-opacity="0.334295743" fill="#4A4A4A"></path>
            <path d="M34.4415584,34.8358804 L34.4415584,34.8389611 C30.8077649,38.4135307 25.8078139,40.6233766 20.2905196,40.6233766 C14.7949103,40.6233766 9.81148123,38.4299607 6.18181818,34.8769556 C6.44513661,33.7371188 7.09155752,32.6886741 8.02504695,31.8384173 C9.34060603,30.6359407 11.1001923,30.025974 12.8866266,30.025974 L27.745011,30.025974 C29.5335107,30.025974 31.289999,30.6359407 32.608656,31.8384173 C33.5287214,32.680459 34.1710119,33.7104198 34.4415584,34.8358804 Z" id="Path" fill="#005CC8"></path>
            <path d="M34.4415584,34.6055468 C34.1755473,33.4342269 33.5440242,32.3643428 32.6393826,31.4887892 C31.9510024,30.8246498 31.1387542,30.3398919 30.2666026,30.025974 C29.361961,31.7119488 28.2441045,33.2548451 26.9434921,34.6055468 L26.9434921,34.6087501 C24.2163685,37.4478928 20.7023797,39.4541921 16.7792208,40.2464615 C17.3843457,40.3681847 17.9986084,40.4621465 18.6209938,40.5262115 C18.6697287,40.5304824 18.7194788,40.5326181 18.7682137,40.5379568 C19.0311789,40.562515 19.2941443,40.58387 19.5591402,40.5988183 C19.8799785,40.6148346 20.202847,40.6233766 20.5277463,40.6233766 C23.2406554,40.6233766 25.8256355,40.0489281 28.1801399,39.0100088 C30.5336292,37.9710896 32.6556276,36.4676999 34.4415584,34.6087501 L34.4415584,34.6055468 Z" id="Path" fill="#005CC8"></path>
            <path d="M23.4765326,21.1761043 L21.2235578,22.5739637 C20.3917848,23.0900641 19.3474478,23.0900641 18.5156751,22.5739637 L16.2627,21.1761043 C15.4863787,20.6955249 15.012987,19.8357059 15.012987,18.910068 L15.012987,12.7711885 C15.012987,11.0828921 16.3561462,9.71428571 18.0125037,9.71428571 L21.726729,9.71428571 C23.3830865,9.71428571 24.7272727,11.0828921 24.7272727,12.7711885 L24.7272727,18.910068 C24.7272727,19.8357059 24.252854,20.6955249 23.4765326,21.1761043 Z" id="Path" fill="#FFFFFF"></path>
            <path d="M136,20.3116883 C136,25.9588046 133.696118,31.0669586 129.973421,34.747957 L129.973421,34.7510845 C126.305975,38.3799588 121.258285,40.6233766 115.688312,40.6233766 C110.140231,40.6233766 105.108178,38.3966385 101.443859,34.7896562 C97.6992697,31.1055306 95.3766234,25.9806966 95.3766234,20.3116883 C95.3766234,9.0945991 104.471222,0 115.688312,0 C126.905401,0 136,9.0945991 136,20.3116883 Z" id="Path" fill="#4982AA"></path>
            <path d="M115.955148,0 C114.655792,0 113.3873,0.129267571 112.156873,0.369037932 C121.409767,2.16835925 128.40345,10.4112519 128.40345,20.3116883 C128.40345,25.9588046 126.129834,31.0669586 122.456042,34.747957 L122.456042,34.7510845 C119.691696,37.5230398 116.132099,39.4818605 112.155844,40.2553811 C113.386271,40.4941091 114.655792,40.6233766 115.955148,40.6233766 C121.451948,40.6233766 126.433326,38.3799588 130.052592,34.7510845 L130.052592,34.747957 C133.726385,31.0669586 136,25.9588046 136,20.3116883 C136,9.0945991 127.024877,0 115.955148,0 Z" id="Path" fill-opacity="0.334295743" fill="#4A4A4A"></path>
            <path d="M129.818182,34.8358804 L129.818182,34.8389611 C126.185421,38.4135307 121.18547,40.6233766 115.668176,40.6233766 C110.172566,40.6233766 105.188105,38.4299607 101.558442,34.8769556 C101.822793,33.7371188 102.468181,32.6886741 103.40167,31.8384173 C104.717229,30.6359407 106.476816,30.025974 108.26325,30.025974 L123.121634,30.025974 C124.911167,30.025974 126.667655,30.6359407 127.985279,31.8384173 C128.906377,32.680459 129.548668,33.7104198 129.818182,34.8358804 Z" id="Path" fill="#005CC8"></path>
            <path d="M129.818182,34.6055468 C129.553186,33.4342269 128.921663,32.3643428 128.016006,31.4887892 C127.327626,30.8246498 126.516393,30.3398919 125.644241,30.025974 C124.738584,31.7119488 123.620728,33.2548451 122.321131,34.6055468 L122.321131,34.6087501 C119.592992,37.4478928 116.080018,39.4541921 112.155844,40.2464615 L112.156859,40.2464615 C112.760969,40.3681847 113.375232,40.4621465 113.997617,40.5262115 C114.046352,40.5304824 114.096102,40.5326181 114.145852,40.5379568 C114.407802,40.562515 114.670768,40.58387 114.935764,40.5988183 C115.257617,40.6148346 115.580486,40.6233766 115.905385,40.6233766 C118.617279,40.6233766 121.203274,40.0489281 123.556763,39.0100088 C125.910252,37.9710896 128.032251,36.4676999 129.818182,34.6087501 L129.818182,34.6055468 Z" id="Path" fill="#005CC8"></path>
            <path d="M119.7373,21.1761043 L117.484325,22.5739637 C116.652552,23.0900641 115.607188,23.0900641 114.776442,22.5739637 L112.522441,21.1761043 C111.746119,20.6955249 111.272727,19.8357059 111.272727,18.910068 L111.272727,12.7711885 C111.272727,11.0828921 112.615887,9.71428571 114.273271,9.71428571 L117.986469,9.71428571 C119.643854,9.71428571 120.987013,11.0828921 120.987013,12.7711885 L120.987013,18.910068 C120.987013,19.8357059 120.513621,20.6955249 119.7373,21.1761043 Z" id="Path" fill="#FFFFFF"></path>
            <path d="M136,115.688833 C136,121.335804 133.696118,126.443827 129.973421,130.124731 L129.973421,130.127859 C126.305975,133.75664 121.258285,136 115.688312,136 C110.140231,136 105.108178,133.773319 101.443859,130.166429 C97.6992697,126.482398 95.3766234,121.357696 95.3766234,115.688833 C95.3766234,104.470989 104.471222,95.3766234 115.688312,95.3766234 C126.905401,95.3766234 136,104.472031 136,115.688833 Z" id="Path" fill="#4982AA"></path>
            <path d="M115.955148,95.3766234 C114.655792,95.3766234 113.3873,95.5058909 112.156873,95.7456613 C121.409767,97.5449826 128.40345,105.787875 128.40345,115.688312 C128.40345,121.335428 126.129834,126.443582 122.456042,130.12458 L122.456042,130.127708 C119.691696,132.898621 116.132099,134.858484 112.155844,135.630962 C113.386271,135.870732 114.655792,136 115.955148,136 C121.451948,136 126.433326,133.756582 130.052592,130.126666 L130.052592,130.12458 C133.726385,126.443582 136,121.335428 136,115.688312 C136,104.471222 127.024877,95.3766234 115.955148,95.3766234 Z" id="Path" fill-opacity="0.334295743" fill="#4A4A4A"></path>
            <path d="M129.818182,130.212504 L129.818182,130.215584 C126.185421,133.790154 121.18547,136 115.668176,136 C110.172566,136 105.188105,133.806584 101.558442,130.253579 C101.822793,129.112715 102.468181,128.065297 103.40167,127.214014 C104.717229,126.012564 106.476816,125.402597 108.26325,125.402597 L123.121634,125.402597 C124.911167,125.402597 126.667655,126.012564 127.985279,127.214014 C128.906377,128.057082 129.548668,129.086016 129.818182,130.212504 Z" id="Path" fill="#005CC8"></path>
            <path d="M129.818182,129.98217 C129.553186,128.81085 128.921663,127.740966 128.016006,126.865413 C127.327626,126.201273 126.516393,125.716515 125.644241,125.402597 C124.738584,127.088572 123.620728,128.630401 122.321131,129.98217 L122.321131,129.985373 C119.592992,132.823449 116.080018,134.830815 112.155844,135.622017 L112.156859,135.622017 C112.760969,135.744808 113.375232,135.837702 113.997617,135.901767 C114.046352,135.907106 114.096102,135.909241 114.145852,135.913512 C114.407802,135.939138 114.670768,135.960493 114.935764,135.974374 C115.257617,135.991458 115.580486,136 115.905385,136 C118.617279,136 121.203274,135.425552 123.556763,134.386632 C125.910252,133.347713 128.032251,131.843256 129.818182,129.985373 L129.818182,129.98217 Z" id="Path" fill="#005CC8"></path>
            <path d="M119.7373,116.553772 L117.484325,117.950587 C116.652552,118.466687 115.607188,118.466687 114.776442,117.950587 L112.522441,116.553772 C111.746119,116.072148 111.272727,115.213374 111.272727,114.286692 L111.272727,108.148857 C111.272727,106.459516 112.615887,105.090909 114.273271,105.090909 L117.986469,105.090909 C119.643854,105.090909 120.987013,106.459516 120.987013,108.148857 L120.987013,114.286692 C120.987013,115.213374 120.513621,116.072148 119.7373,116.553772 Z" id="Path" fill="#FFFFFF"></path>
            <path d="M72.4155844,17.6623377 C72.4155844,15.2236425 70.4389329,13.2467532 68,13.2467532 C65.5610671,13.2467532 63.5844156,15.2236425 63.5844156,17.6623377 C63.5844156,20.1010328 65.5610671,22.0779221 68,22.0779221 C70.4389329,22.0779221 72.4155844,20.1010328 72.4155844,17.6623377 Z" id="Path" fill="#FDD559"></path>
            <path d="M72.4155844,118.337662 C72.4155844,115.898967 70.4389329,113.922078 68,113.922078 C65.5610671,113.922078 63.5844156,115.898967 63.5844156,118.337662 C63.5844156,120.776358 65.5610671,122.753247 68,122.753247 C70.4389329,122.753247 72.4155844,120.776358 72.4155844,118.337662 Z" id="Path" fill="#FDD559"></path>
            <path d="M22.0779221,68.8836155 C22.0779221,66.4451957 20.1010476,64.4675325 17.6628358,64.4675325 C15.2236278,64.4675325 13.2467532,66.4451957 13.2467532,68.8836155 C13.2467532,71.3220353 15.2236278,73.2987013 17.6628358,73.2987013 C20.1010476,73.2987013 22.0779221,71.3220353 22.0779221,68.8836155 Z" id="Path" fill="#FDD559"></path>
            <path d="M122.753247,68.8836155 C122.753247,66.4451957 120.776372,64.4675325 118.337164,64.4675325 C115.898952,64.4675325 113.922078,66.4451957 113.922078,68.8836155 C113.922078,71.3220353 115.898952,73.2987013 118.337164,73.2987013 C120.776372,73.2987013 122.753247,71.3220353 122.753247,68.8836155 Z" id="Path" fill="#FDD559"></path>
        </g>
        <g id="bank" transform="translate(29.000000, 114.000000)">
            <path d="M126.02441,10.6542666 C124.22146,7.64316551 120.347829,6.57791166 117.240563,8.23590583 L86.0800768,21.4391286 C85.5311797,21.6699542 84.9404808,21.7899341 84.3453032,21.7877123 L45.7184721,21.7877123 C43.2919785,21.7877123 41.3265486,19.8376682 41.3265486,17.4301698 C41.3265486,15.0226714 43.2919785,13.0726274 45.7184721,13.0726274 L63.2861659,13.0726274 C70.5636559,13.0726274 76.4619362,7.22052018 76.4619362,0 L39.9212127,0 C33.8646829,0.00444370088 28.1378396,2.73880097 24.3520419,7.429621 L10.5833333,23.9663601 L26.0868156,52.1594203 L85.7508879,37.9321713 C88.3289128,37.3416528 90.8235831,36.4353847 93.1731912,35.2304012 L123.916407,19.6085707 C126.975401,17.7024699 127.915194,13.7088172 126.02441,10.6542666 Z" id="Path" fill="#FEC9A3"></path>
            <path d="M22.0486111,43.1004657 L26.9640075,52.1594203 L86.3210638,37.8015216 C88.8858229,37.2055804 91.3676562,36.2909899 93.7051739,35.0749409 L110.243056,26.5217391 C82.7599573,34.9869948 46.2763144,40.2640146 22.0486111,43.1004657 Z" id="Path" fill="#F7BB8F"></path>
            <polygon id="Path" fill="#4398D1" points="0 21.5962024 0 61 28.6632725 61 35.2777778 54.4327831 8.8195069 15.0289855"></polygon>
            <path d="M0,61 L28.6632725,61 L35.2777778,54.2643687 L30.427074,46.8550725 C20.6199881,50.9771995 10.4246662,54.0689855 0,56.0831113 L0,61 Z" id="Path" fill="#3E8CC7"></path>
            <ellipse id="Oval" fill="#D9D9D9" cx="19.4027778" cy="49.5072464" rx="4.40972222" ry="4.42028986"></ellipse>
        </g>
    </g>
</svg>